<svg version="1.0" xmlns="http://www.w3.org/2000/svg" viewBox="0 0 512 512"><path d="M0 140v120h69.5l15 15 15 15h313l15-15 15-15H512V20H0v120zm482 0v90h-31v-30H61v30H30V50h452v90zm-61 94.2c0 4.1-.5 4.7-10.7 15L399.5 260h-287l-10.7-10.7C91.4 239 91 238.4 91 234.3V230h330v4.2z"/><path d="M361 95v15h30V80h-30v15zM421 95v15h30V80h-30v15zM181 155v15h150v-30H181v15zM120.7 366.7c-1.4 36.1-9.4 70.5-23.7 102.1-2.3 5.2-4 9.5-3.8 9.7.9.8 24.9 12.5 25.8 12.5 2.3 0 15.5-33.1 20.9-52.5 6.4-23.3 9.9-46.2 10.8-71.8l.6-16.7h-30l-.6 16.7zM181 395v45h30v-90h-30v45zM241 395v45h30v-90h-30v45zM301 395v45h30v-90h-30v45zM361.3 367.7c1.5 40.4 9.8 76.2 26.3 113.7 2.1 4.8 4.4 9 5 9.3.9.3 24.5-10.7 26.2-12.2.2-.2-1.5-4.5-3.8-9.7-14.3-31.6-22.3-66-23.7-102.1l-.6-16.7h-30l.6 17.7z"/></svg>
