<svg version="1.0" xmlns="http://www.w3.org/2000/svg" viewBox="0 0 512 512"><path d="M244.7 1.4c-5.4 2-11.1 6-14 9.8-4.1 5.3-12.5 23.6-14.9 32.3-2.1 7.7-2.2 9.9-2.6 59.5l-.3 51.5L112.6 255C39.7 328 11.1 357.3 8.1 361.9c-7 10.9-8.1 16.3-8.1 38.8 0 11.4.4 20.2 1 21.4 1.6 2.9 6.8 5.1 10.9 4.7 2.7-.3 28.1-16.1 103.9-64.7 55.2-35.4 100.5-64.1 100.8-63.9.2.3 1.1 9.2 1.9 19.9.8 10.7 3.3 38.2 5.6 61.2 2.2 23 3.9 42 3.7 42.2-.1.1-17 11.4-37.5 24.9-20.4 13.5-38.1 25.7-39.2 27.2-1.9 2.4-2.1 4-2.1 16.6 0 18.4 1.7 21.8 10.8 21.8 2.2 0 24.3-4.5 49.2-10 24.8-5.5 46.1-10 47.3-10 1.3 0 22.5 4.5 47.2 10 24.7 5.5 46.7 10 48.8 10 9 0 10.7-3.4 10.7-22v-14l-3.2-3.4c-1.8-1.9-19.3-13.9-38.8-26.7-19.5-12.7-35.9-23.5-36.3-24-.5-.4.9-19.5 3.2-42.5 2.3-23.1 4.8-50.6 5.6-61.3.8-10.7 1.7-19.6 1.9-19.9.3-.2 45.6 28.5 100.8 63.9 75.7 48.5 101.2 64.4 103.9 64.7 4.1.4 9.3-1.8 10.9-4.7.6-1.2 1-10 1-21.4 0-22.5-1.1-27.9-8.1-38.8-3-4.6-31.6-33.9-104.5-106.9L299.1 154.5l-.3-51.5c-.4-59.2-.3-58-10.2-78.6-5.8-12.1-10.5-17.8-17.8-21.5-5.5-2.9-20.2-3.7-26.1-1.5z"/></svg>
