<svg version="1.0" xmlns="http://www.w3.org/2000/svg" viewBox="0 0 512 512"><path d="M230 .7c-49 5-96.9 24.7-135.4 55.8-12 9.6-34.3 32.6-43.3 44.6-21 28-36.1 59.8-44.3 93.1C1.3 217.5.5 225 .5 256c0 31 .8 38.5 6.5 61.8 6.7 27.1 19.7 56.9 34.6 79.2 49.2 73.6 130.5 116.9 215.3 114.7 21.3-.5 27.9-1.9 41.6-8.9 11.5-6 23.7-18.3 29.4-29.8 6.7-13.8 8.4-22.5 7.8-40.4-.6-18.7-1.8-23-11.1-42.1-4.1-8.3-7.9-16.8-8.5-19-1.6-5.9-1.4-20.3.5-26.6 4.3-14.7 16.5-27.1 31.7-32.2 5.9-2 8.9-2.1 64.7-2.7 56.8-.5 58.7-.6 63.7-2.7 16.9-6.8 28.8-19.7 33.7-36.2 3.4-11.7 1.5-46.1-4-71.1-2.8-12.7-10.6-36.8-15.3-47.3l-3.1-6.9-5.3 3.1c-6.4 3.6-21.3 8.7-28.4 9.6-2.9.4-5.3 1.1-5.3 1.6s1.2 3.3 2.6 6.1c6.5 12.8 13.5 35.4 16.9 54.3.9 4.9 1.9 16 2.2 24.6l.6 15.6-3.4 3.7c-2.2 2.4-4.8 4-7.4 4.6-2.2.5-28.1 1-57.5 1-61.1 0-62.5.2-79.7 8.5-23.6 11.5-41.3 33.5-47.4 59-1.8 7.8-2 11.1-1.6 24.5.5 18.6 2.6 26.2 11.7 43.5 7.3 13.9 9 19.5 9 30.6 0 14.1-4.8 23.7-14.6 29.5-7.1 4.2-13.6 5.4-27.9 5.4-32.1 0-63.6-7.8-93.8-23.2-61.3-31.3-102.3-87-115.4-156.8-2.5-13.6-2.5-56.4 0-70 11.4-61.1 43.6-110.6 93.6-144.2 26.5-17.7 57.9-29.6 90.5-34.3 14.6-2.1 42.5-2.1 57.6 0 21.4 3 45.9 10.4 62.8 18.9 3.9 2 7.6 3.6 8.1 3.6.6 0 1.3-1.7 1.6-3.8 1.3-7.7 5.8-21 9.6-27.9l3.8-7.1-10.7-4.7c-22.7-10-48-17-72.2-20-11.3-1.4-47.5-1.9-58-.8z"/><path d="M508.5 2c-6.4 7-22.1 13.1-49.3 19-27.2 5.8-35.9 8.9-45.3 16-6.2 4.7-10.4 10-14.3 18-2.9 6.1-3.1 7.3-3.3 18.9l-.1 12.4-133.1 133.1L130 352.5l14.8 14.8 14.7 14.7 132.4-132.4 132.3-132.3 4.6 1.3c2.5.8 8.5 1.4 13.3 1.4 9.9 0 18.8-2.6 26-7.5 8.9-6.2 22.7-23.3 29.2-36.1 8.1-16.1 13.6-39.3 14.4-61.7.6-15.2.3-16.5-3.2-12.7zM239.6 86.4c-10.5 4.4-17.7 11.8-21.6 22.3-1.8 4.7-2.1 7.4-1.8 14.8.3 7.8.8 10 3.5 15.6 3.9 7.9 10.2 14 18.1 17.7 5 2.4 6.9 2.7 16.2 2.7 9.3 0 11.2-.3 16.2-2.7 7.9-3.7 14.2-9.8 18.1-17.7 3-6.1 3.2-7.2 3.2-17.1 0-9.9-.2-11-3.2-17.1-3.9-7.9-10.2-14-18.1-17.7-4.7-2.2-7.4-2.7-15.2-3-8.2-.2-10.3.1-15.4 2.2zM147 130.3c-31.9 7.1-37.6 50.2-8.8 65.8 6 3.2 6.8 3.4 16.3 3.4 8.7 0 10.7-.3 15.5-2.6 7-3.3 13.6-9.9 16.9-16.9 2.3-4.8 2.6-6.8 2.6-15.5 0-9-.3-10.5-2.9-15.5-7.5-14.5-23.8-22.2-39.6-18.7zM101.9 231.3c-8.4 3.2-14.8 8.8-19.1 17-2 3.6-2.3 5.7-2.3 14.7 0 9.7.2 10.9 2.9 15.8 3.4 6 8.5 11.1 14.8 14.4 3.7 2 5.8 2.3 14.8 2.3 9.7 0 10.9-.2 15.8-2.9 6-3.4 11.1-8.5 14.4-14.8 2-3.7 2.3-5.8 2.3-14.8s-.3-11.1-2.3-14.8c-3.4-6.3-8.4-11.4-14.4-14.7-4.5-2.5-6.6-3-14.3-3.2-5.8-.2-10.3.2-12.6 1z"/></svg>
