<svg id="Capa_1" enable-background="new 0 0 512.004 512.004" viewBox="0 0 512.004 512.004" xmlns="http://www.w3.org/2000/svg"><g><path d="m417.24 133.417c13.203-13.23 24.296-27.23 32.423-41.132 16.612-28.415 20.677-55.496 11.753-78.316l-5.464-13.969-222.57 87.031-16.169-30.043c-13.019-24.191-38.172-39.219-65.644-39.219-27.589 0-50.848 18.898-57.512 44.429h-94.055v30h15c21.632 0 42.167 9.373 56.341 25.715 14.173 16.342 20.547 37.997 17.488 59.412-5.602 39.212 6.07 78.864 32.023 108.788 25.583 29.498 62.485 46.595 101.474 47.075-14.003 20.666-21.699 45.209-21.756 70.801-.083 37.753 16.473 73.304 45.418 97.534l12.514 10.481 9.497-12.663c32.621-43.494 52.014-95.14 56.081-149.355 2.138-28.503-.037-56.93-6.309-84.445 40.744-3.426 83.185-14.295 117.721-30.512 49.336-23.167 76.507-53.926 76.507-86.611v-15h-94.761zm18.782-93.412c-.269 13.396-6.299 26.945-12.259 37.14-11.319 19.361-29.683 39.212-51.974 56.272h-113.442l-10.643-19.775zm-342.015 58.252c-1.823-2.102-3.723-4.124-5.691-6.059h33.825v-15c0-16.227 13.202-29.429 29.429-29.429 16.416 0 31.447 8.98 39.227 23.436l33.482 62.212h-13.952c-13.25 0-25.446 5.257-34.397 14.597-19.712-9.561-40.676-13.657-60.964-11.953-4.231-13.764-11.299-26.665-20.959-37.804zm49.512 168.2c-20.252-23.35-29.36-54.291-24.989-84.889.751-5.258 1.088-10.526 1.04-15.762 14.614-.831 29.448 2.511 43.343 9.298-.938 7.191-.269 14.598 2.126 21.636 10.076 29.607 30.964 49.89 62.323 60.711 3.918 15.245 5.058 30.845 3.311 45.747h-6.653c-30.909 0-60.25-13.392-80.501-36.741zm110.32 200.793c-14.982-17.466-23.318-39.776-23.266-63.195.059-26.66 10.986-51.828 30.179-70.02-.25-22.853 2.313-46.716-1.281-69.264 8.668 1.132 17.885 1.761 27.641 1.89 16.952 67.807 4.797 141.895-33.273 200.589zm37.036-230.547c-72.198 0-90.186-28.323-97.436-49.627-1.887-5.546-1.017-11.453 2.388-16.208 3.39-4.734 8.674-7.449 14.498-7.449h267.851c-18.96 37.849-105.222 73.284-187.301 73.284z"/></g></svg>
