<svg version="1.0" xmlns="http://www.w3.org/2000/svg" viewBox="0 0 512 512"><path d="M257.5 9.4c-4.1 1.8-8.3 6.9-9 10.9-.3 1.8-.5 33.4-.3 70.4.3 66 .3 67.2 2.4 69.9 4.9 6.6 5.8 6.9 26.5 7.2l18.9.3V152h-32V24h224v128h-96v16.1l50.9-.3c49.7-.3 51-.4 53.7-2.4 1.5-1.1 3.7-3.3 4.8-4.8 2.1-2.7 2.1-3.6 2.1-72.6s0-69.9-2.1-72.6c-1.1-1.5-3.3-3.7-4.8-4.8-2.7-2.1-3.3-2.1-119.4-2.3-95.5-.2-117.3 0-119.7 1.1z"/><path d="M343.7 47.8c-2.6 2.6-4.7 5.2-4.7 5.7 0 .6 14.2 15.2 31.5 32.5l31.5 31.5 5.7-5.8 5.8-5.7L382 74.5C364.7 57.2 350 43 349.5 43c-.6 0-3.2 2.2-5.8 4.8zM399.7 47.8c-2.6 2.6-4.7 5.2-4.7 5.7 0 .6 8.8 9.8 19.5 20.5L434 93.5l5.7-5.8 5.8-5.7L426 62.5C415.3 51.8 406 43 405.5 43c-.6 0-3.2 2.2-5.8 4.8zM311.7 79.8c-2.6 2.6-4.7 5.2-4.7 5.8 0 .5 5.2 6.1 11.5 12.4l11.5 11.5 5.7-5.8 5.8-5.7L330 86.5c-6.3-6.3-11.9-11.5-12.5-11.5-.6 0-3.2 2.2-5.8 4.8zM336.5 120.9c-9.2 2.4-17.3 9-21.5 17.6l-2.5 5-.3 36.2-.3 36.2-18.9.3c-17.2.3-19.1.5-21.6 2.4-6.6 4.9-6.9 5.9-7.2 25-.5 24.8 2.1 36.9 10.9 50.4 7.8 12 20.1 22.7 32.2 27.9l4.7 2v62.6c0 59.6-.1 62.5-1.8 62.5-3.2 0-12 5-15.5 8.9-1.9 2.1-6.9 9.7-11.3 16.9l-7.9 13.2H166.4l-5.3-24.2c-3-13.4-5.6-24.8-5.8-25.4-.3-.8 3.7-1.3 12.4-1.8 17.1-.9 27.5-2.3 34.8-4.8 13.8-4.6 29.5-17.8 36.8-31 6.9-12.4 10.3-29.9 7.7-39.3-1.5-5.4-8-13.1-13-15.4-3.1-1.4-11.8-1.7-71.5-2.1l-67.9-.5-15.2-82C69.1 206 63.5 178.4 62.2 176c-1.1-2.1-3.6-4.4-6.3-5.8-3.9-2-5.7-2.2-19.7-2.2-12.1 0-16.1.3-18.8 1.6-4.5 2.2-8.2 6.6-9 11-.5 2.5 3.8 27.4 15 87.7L39 352.5V488H8v16h488v-16h-19.5l-7.9-13.2c-4.4-7.2-9.4-14.8-11.3-16.9-3.5-3.9-12.3-8.9-15.5-8.9-1.7 0-1.8-2.9-1.8-62.5V324l5.6-2.5c11.9-5.3 23.6-15.5 31.3-27.5 8.8-13.5 11.4-25.6 10.9-50.4-.3-19.1-.6-20.2-7.2-25-2.7-2.1-3.9-2.1-61.7-2.4L360 216v-16h-16v16h-16.1l.3-34.9c.3-33.5.4-35.1 2.4-37.7 3.9-5.3 7.1-6.9 13.4-6.9 6.3 0 9.5 1.6 13.4 6.9 1.8 2.3 2.2 4.5 2.4 13.7l.4 10.9h16l-.4-12.3c-.4-11.6-.6-12.5-3.8-18.5-3.7-7-6.9-10.1-14.2-13.8-5.4-2.7-15.9-4-21.3-2.5zM49 185c0 .6 6.5 36.1 14.5 79S78 342.4 78 343c0 .7-4.2 1-12.2.8l-12.3-.3L39.4 267c-7.7-42.1-14.3-78-14.7-79.8l-.6-3.2h12.4c7.8 0 12.5.4 12.5 1zm422.8 64.7c-.4 14.8-.9 18.8-2.6 23.6-6.5 17.9-19.1 30.2-37.2 36.3-5.1 1.8-9.3 1.9-56 1.9-50.2 0-50.5 0-57.2-2.3-14.5-5-26.4-15.5-32.8-28.7-4.9-10.2-6-16.4-6-34.2V232h192.2l-.4 17.7zM424 388v60h-96V328h96v60zm-194.4-25.5c2.1 2.2 2.5 3.3 2.2 7.8l-.3 5.2-88.2.3-88.3.2v-16h172.1l2.5 2.5zm-5.3 32.7c-2.6 4.6-12.1 13.9-17.4 17-10.3 6-14.3 6.7-55.3 9.3-20.9 1.4-38.4 2.5-38.8 2.5-.5 0-.8 3.6-.8 8.1v8l9.8-.6c5.3-.3 11.4-.8 13.5-1 2-.3 3.7-.4 3.7-.2 0 .4 9.4 42.6 10.5 47.5l.5 2.2H55v-96h171.1l-1.8 3.2zm216 70.2c4.2 1.8 7.4 5.4 13 14.8l4.7 7.8H294.1l4.7-7.8c6.7-11.1 7.5-12.1 11.8-14.2 3.7-1.9 6.3-2 65.1-2 49.9 0 62 .3 64.6 1.4z"/><path d="M129.5 201.4c-7.2 3.3-9.5 8.3-9.5 21.2v9.4h-16v16h16v9.5c0 5.8.5 10.8 1.4 12.8 1.7 4.3 6.8 8.5 11 9.3l3.4.6.4 10.8c.3 11.7 1.2 14 7.2 18.4 2.6 2 4.1 2.1 24.6 2.1s22-.1 24.6-2.1c6-4.4 6.9-6.7 7.2-18.4l.4-10.8 3.4-.6c4.2-.8 9.3-5 11-9.3.9-2 1.4-7 1.4-12.8V248h16v-16h-15.8l-.4-10.9c-.3-11.8-1.2-14.1-7.2-18.5-2.6-2-4.1-2.1-39.4-2.3-29.1-.2-37.3 0-39.7 1.1zM200 240v24h-64v-48h64v24zm-16 48v8h-32v-16h32v8z"/></svg>
