<svg viewBox="0 0 512 512" xmlns="http://www.w3.org/2000/svg"><path d="m512 292v-232c0-33.085938-26.914062-60-60-60h-352c-55.140625 0-100 44.859375-100 100v232c0 26.878906 10.664062 51.3125 27.976562 69.300781-16.796874 10.644531-27.976562 29.386719-27.976562 50.699219 0 33.085938 26.914062 60 60 60h352c55.140625 0 100-44.859375 100-100 0-26.878906-10.664062-51.3125-27.976562-69.300781 16.796874-10.644531 27.976562-29.386719 27.976562-50.699219zm-412-252h352c11.027344 0 20 8.972656 20 20v175.441406c-6.261719-2.222656-12.988281-3.441406-20-3.441406h-352c-22.492188 0-43.273438 7.46875-60 20.050781v-152.050781c0-33.085938 26.914062-60 60-60zm312 432h-352c-11.027344 0-20-8.972656-20-20s8.972656-20 20-20h352v-40h-312c-33.085938 0-60-26.914062-60-60s26.914062-60 60-60h352c11.027344 0 20 8.972656 20 20s-8.972656 20-20 20h-352v40h312c33.085938 0 60 26.914062 60 60s-26.914062 60-60 60zm0 0"/></svg>
