<svg xmlns="http://www.w3.org/2000/svg" viewBox="0 0 512 512"><path d="M464.496 232.412V118.394c0-25.137-20.451-45.588-45.588-45.588H93.092c-25.137 0-45.588 20.451-45.588 45.588v114.018C20.148 239.985 0 265.085 0 294.817v86.633c0 8.394 6.806 15.2 15.2 15.2h32.304v27.344c0 8.394 6.806 15.2 15.2 15.2 8.394 0 15.2-6.806 15.2-15.2V396.65h356.192v27.344c0 8.394 6.806 15.2 15.2 15.2 8.394 0 15.2-6.806 15.2-15.2V396.65H496.8c8.394 0 15.2-6.806 15.2-15.2v-86.633c0-29.732-20.149-54.832-47.504-62.405zM77.904 118.394c0-8.374 6.814-15.188 15.188-15.188h325.817c8.374 0 15.188 6.814 15.188 15.188V230.06h-35.615v-30.511c0-26.531-21.584-48.115-48.115-48.115h-61.451c-12.724 0-24.302 4.973-32.915 13.068-8.613-8.094-20.191-13.068-32.915-13.068h-61.451c-26.531 0-48.115 21.585-48.115 48.115v30.511H77.904V118.394zm290.178 81.155v30.511H271.2v-30.511c0-9.769 7.948-17.715 17.715-17.715h61.451c9.769 0 17.716 7.947 17.716 17.715zm-127.283 0v30.511h-96.882v-30.511c0-9.769 7.948-17.715 17.715-17.715h61.451c9.769 0 17.716 7.947 17.716 17.715zM481.6 366.25H30.4v-71.433c0-18.944 15.412-34.357 34.357-34.357h382.486c18.944 0 34.357 15.412 34.357 34.357v71.433z"/></svg>