<svg xmlns="http://www.w3.org/2000/svg" viewBox="0 0 512 512"><path d="M478.242 106.338H33.196c-9.323 0-16.879 7.556-16.879 16.879v63.015c0 9.323 7.556 16.879 16.879 16.879h445.046c9.323 0 16.879-7.556 16.879-16.879v-63.015c0-9.322-7.556-16.879-16.879-16.879zm-16.879 63.016H50.075v-29.257h411.288v29.257z"/><path d="M33.196 0c-9.323 0-16.879 7.556-16.879 16.879v150.787c0 9.323 7.556 16.879 16.879 16.879s16.879-7.556 16.879-16.879V16.879C50.075 7.556 42.518 0 33.196 0zM461.925 170.479h33.758v184.545h-33.758z"/><path d="M16.316 170.479h33.758v184.545H16.316zM154.725 48.949H32.07v33.758h105.776v40.51h33.758V65.829c0-9.323-7.556-16.88-16.879-16.88z"/><path d="M478.242 331.393H33.196c-9.323 0-16.879 7.556-16.879 16.879v63.015c0 9.323 7.556 16.879 16.879 16.879h445.046c9.323 0 16.879-7.556 16.879-16.879v-63.015c0-9.322-7.556-16.879-16.879-16.879zm-16.879 63.016H50.075v-29.257h411.288v29.257z"/><path d="M478.804 378.655c-9.323 0-16.879 7.556-16.879 16.879v99.587c0 9.323 7.556 16.879 16.879 16.879s16.879-7.556 16.879-16.879v-99.587c.001-9.323-7.556-16.879-16.879-16.879zM33.196 378.655c-9.323 0-16.879 7.556-16.879 16.879v99.587c0 9.323 7.556 16.879 16.879 16.879s16.879-7.556 16.879-16.879v-99.587c0-9.323-7.557-16.879-16.879-16.879zM154.725 274.004H32.07v33.758h105.776v40.51h33.758v-57.389c0-9.322-7.556-16.879-16.879-16.879z"/></svg>