<svg viewBox="0 0 512 512" xmlns="http://www.w3.org/2000/svg"><path d="M345.852 287.508c-12.547-7.426-34.47-25.586-54.895-6.149-4.82 4.907-8.012 8.192-10.074 10.301-18.555-8.789-51.547-40.644-60.102-60.746 30.313-27.555 16.282-37.383-13.531-94.004-5.094-8.789-13.352-14.62-23.43-14.62-12.343 0-17.168 6.081-34.8 23.925-22.079 22.336-35.036 29.351-26.73 67.2 23.632 107.733 181.347 215.632 226.01 167.398 36.481-36.235 43.516-39.668 41.38-56.055-2.692-16.317-15.211-20.317-43.828-37.25zm-19.536 72.89c-2.55 2.832-17.824 3.766-43.16-6.75-48.043-19.937-97.879-72.257-118.3-111.316-6.504-12.441-20.887-49.332-12.903-56.527 3.266-3.098 25.223-25.52 30.84-30.953 14.953 28.343 22.234 41.593 24.652 46.992-4.3 6.64-18.054 11.84-18.054 28.129 6.05 31.824 47.453 70.824 72.199 85.336 25.258 14.812 33.34 4.91 42.539-4.52 8.215-8.414 7.512-7.902 8.367-7.988l45.184 26.554c-5.297 5.54-27.707 27.2-31.364 31.043zm0 0"/><path d="M256 0C114.496 0 0 114.516 0 256c0 141.504 114.516 256 256 256 141.504 0 256-114.516 256-256C512 114.496 397.484 0 256 0zm0 482C131.078 482 30 380.902 30 256 30 131.078 131.098 30 256 30c124.922 0 226 101.098 226 226 0 124.922-101.098 226-226 226zm0 0"/></svg>