<svg version="1.0" xmlns="http://www.w3.org/2000/svg" viewBox="0 0 512 512"><path d="M96 89.3c-4.9 1.6-13.3 10.2-14.8 15.3-.7 2.3-1.2 6.7-1.2 9.8v5.6H58.4c-14.1 0-23.1.4-25.8 1.2-5.5 1.6-13.8 9.9-15.4 15.4-1.7 6-1.7 232.8 0 238.8 1.6 5.5 9.9 13.8 15.4 15.4 2.3.7 6.7 1.2 9.8 1.2H48v13.5c0 13.1.1 13.7 2.5 16l2.4 2.5h406.2l2.4-2.5c2.4-2.3 2.5-2.9 2.5-16V392h5.8c8.7 0 14.4-2.3 19.5-8 2.4-2.6 4.9-6.6 5.5-8.8 1.7-5.7 1.7-232.7 0-238.4-.6-2.2-3.1-6.2-5.5-8.8-6.6-7.4-9.4-8-35.5-8H432v-5.6c0-8.1-1.8-12.9-6.7-18.4-7.3-8.2-6.1-8-65.1-8-37.5 0-52.6.3-55.6 1.2-5.5 1.6-13.8 9.9-15.4 15.4-.7 2.3-1.2 6.7-1.2 9.8v5.6h-64v-5.6c0-8.1-1.8-12.9-6.7-18.4-7.3-8.2-6-8-65.7-7.9-34.9.1-53.3.5-55.6 1.2zm109.5 17.2c2.1 2 2.5 3.4 2.5 8v5.5H96v-5.5c0-4.6.4-6 2.5-8l2.4-2.5h102.2l2.4 2.5zm208 0c2.1 2 2.5 3.4 2.5 8v5.5H304v-5.5c0-4.6.4-6 2.5-8l2.4-2.5h102.2l2.4 2.5zm64 32 2.5 2.4v230.2l-2.5 2.4-2.4 2.5H36.9l-2.4-2.5-2.5-2.4V140.9l2.5-2.4 2.4-2.5h438.2l2.4 2.5zM448 400v8H64v-16h384v8z"/><path d="m50.5 154.5-2.5 2.4v198.2l2.5 2.4 2.4 2.5h406.2l2.4-2.5 2.5-2.4V156.9l-2.5-2.4-2.4-2.5H52.9l-2.4 2.5zM448 256v88H64V168h384v88z"/><path d="M96 201.3c-4.9 1.6-13.3 10.2-14.8 15.3-1.7 5.8-1.7 73 0 78.8 1.6 5.5 9.9 13.8 15.4 15.4 6.1 1.8 26 1.6 31.7-.4 5.7-1.9 12.8-9.3 14.5-15.2 1.7-5.5 1.7-72.9 0-78.4-1.7-5.9-8.8-13.3-14.5-15.2-5.5-1.9-26.7-2.1-32.3-.3zm29.5 17.2 2.5 2.4v70.2l-2.5 2.4c-2.3 2.4-3.1 2.5-13.5 2.5s-11.2-.1-13.5-2.5l-2.5-2.4v-70.2l2.5-2.4c2.3-2.4 3.1-2.5 13.5-2.5s11.2.1 13.5 2.5zM176 201.3c-4.9 1.6-13.3 10.2-14.8 15.3-1.5 5.2-1.6 26 0 30.5.6 1.9 2 4.6 3 6.1 1.9 2.8 1.9 2.8 0 5.5-3.3 4.8-4.2 9.3-4.2 21.1 0 14.7 1.1 18.4 7.5 24.7 6.3 6.4 10 7.5 24.7 7.5 14.6 0 19.2-1.5 25.1-8 5.6-6.2 6.7-10.2 6.7-24.2 0-11.8-.9-16.3-4.2-21.1-1.9-2.7-1.9-2.7 0-5.5 1-1.5 2.4-4.2 3-6.1 1.6-4.5 1.5-25.3 0-30.3-1.7-5.9-8.8-13.3-14.5-15.2-5.5-1.9-26.7-2.1-32.3-.3zm29.5 17.2c2.4 2.3 2.5 3.1 2.5 13.5s-.1 11.2-2.5 13.5c-2.3 2.4-3.1 2.5-13.5 2.5s-11.2-.1-13.5-2.5c-2.4-2.3-2.5-3.1-2.5-13.5s.1-11.2 2.5-13.5c2.3-2.4 3.1-2.5 13.5-2.5s11.2.1 13.5 2.5zm0 48c2.4 2.3 2.5 3.1 2.5 13.5s-.1 11.2-2.5 13.5c-2.3 2.4-3.1 2.5-13.5 2.5s-11.2-.1-13.5-2.5c-2.4-2.3-2.5-3.1-2.5-13.5s.1-11.2 2.5-13.5c2.3-2.4 3.1-2.5 13.5-2.5s11.2.1 13.5 2.5zM304 201.3c-4.9 1.6-13.3 10.2-14.8 15.3-.8 2.9-1.2 14.6-1.2 39.4 0 24.8.4 36.5 1.2 39.4 1.6 5.5 9.9 13.8 15.4 15.4 6.1 1.8 26 1.6 31.7-.4 5.7-1.9 12.8-9.3 14.5-15.2 1.7-5.5 1.7-72.9 0-78.4-1.7-5.9-8.8-13.3-14.5-15.2-5.5-1.9-26.7-2.1-32.3-.3zm29.5 17.2 2.5 2.4v70.2l-2.5 2.4c-2.3 2.4-3.1 2.5-13.5 2.5s-11.2-.1-13.5-2.5l-2.5-2.4v-70.2l2.5-2.4c2.3-2.4 3.1-2.5 13.5-2.5s11.2.1 13.5 2.5zM384 201.3c-4.9 1.6-13.3 10.2-14.8 15.3-.8 2.9-1.2 14.6-1.2 39.4 0 24.8.4 36.5 1.2 39.4 1.6 5.5 9.9 13.8 15.4 15.4 6.1 1.8 26 1.6 31.7-.4 5.7-1.9 12.8-9.3 14.5-15.2 1.7-5.5 1.7-72.9 0-78.4-1.7-5.9-8.8-13.3-14.5-15.2-5.5-1.9-26.7-2.1-32.3-.3zm29.5 17.2 2.5 2.4v70.2l-2.5 2.4c-2.3 2.4-3.1 2.5-13.5 2.5s-11.2-.1-13.5-2.5l-2.5-2.4v-70.2l2.5-2.4c2.3-2.4 3.1-2.5 13.5-2.5s11.2.1 13.5 2.5zM248 232v8h16v-16h-16v8zM248 280v8h16v-16h-16v8z"/></svg>
