<svg id="Capa_1" enable-background="new 0 0 479.058 479.058" viewBox="0 0 479.058 479.058" xmlns="http://www.w3.org/2000/svg"><path d="m479.058 254.499v-29.941h-224.559v-44.912h59.882c8.275 0 14.971-6.696 14.971-14.971v-149.704c0-8.275-6.696-14.971-14.97-14.971h-149.706c-8.275 0-14.971 6.696-14.971 14.971v149.706c0 8.275 6.696 14.971 14.971 14.971h59.882v44.912h-224.558v29.941h74.853v44.912h-59.882c-8.275-.002-14.971 6.694-14.971 14.969v149.706c0 8.275 6.696 14.971 14.971 14.971h149.706c8.275 0 14.971-6.696 14.971-14.971v-149.706c0-8.275-6.696-14.971-14.971-14.971h-59.882v-44.912h269.47v44.912h-59.882c-8.275 0-14.971 6.696-14.971 14.971v149.706c0 8.275 6.696 14.971 14.971 14.971h149.706c8.275 0 14.971-6.696 14.971-14.971v-149.706c0-8.275-6.696-14.971-14.971-14.971h-59.882v-44.912zm-299.411-224.558h119.764v119.764h-119.764zm-29.941 419.176h-119.765v-119.765h119.764v119.765zm299.411 0h-119.765v-119.765h119.764v119.765z"/></svg>
