<svg id="Capa_1" enable-background="new 0 0 510 510" viewBox="0 0 510 510" xmlns="http://www.w3.org/2000/svg"><g><path d="m414.298 321.674-.742-13.406-13.406-.742c-50.021-2.75-99.647 19.75-130.149 62.259v-70.532c75.693-7.55 135-71.604 135-149.252-.001-82.711-67.291-150.001-150.001-150.001s-150 67.29-150 150c0 77.648 59.306 141.702 135 149.252v70.532c-30.51-42.519-80.16-65.023-130.149-62.259l-13.407.742-.742 13.406c-2.356 42.578 13.57 84.275 43.695 114.4 26.861 26.861 62.92 42.422 100.603 43.811v30.116h30v-30.115c37.68-1.391 73.743-16.951 100.602-43.811 30.126-30.126 46.051-71.823 43.696-114.4zm-288.585 15.863c28.998 1.837 56.59 14.163 77.324 34.897h.001c20.735 20.735 33.061 48.324 34.898 77.323-60.356-3.822-108.399-51.841-112.223-112.22zm204.287-232.537c0 16.848-5.587 32.415-15.001 44.949-.027-33.06-26.932-59.949-59.999-59.949s-59.971 26.889-59.999 59.949c-9.415-12.535-15.001-28.101-15.001-44.949 0-41.355 33.645-75 75-75 41.356 0 75 33.645 75 75zm-105 45c0-16.542 13.458-30 30-30s30 13.458 30 30-13.458 30-30 30-30-13.458-30-30zm-90 0c0-21.813 5.852-42.283 16.066-59.928-9.08 63.518 40.393 119.928 103.934 119.928 63.631 0 113.002-56.494 103.935-119.928 10.213 17.646 16.065 38.116 16.065 59.928 0 66.168-53.832 120-120 120s-120-53.832-120-120zm137.065 299.758c3.82-60.35 51.842-108.398 112.221-112.221-3.821 60.354-51.842 108.398-112.221 112.221z"/></g></svg>
