<svg version="1.0" xmlns="http://www.w3.org/2000/svg" viewBox="0 0 512 512"><path d="M232.3 1C173 6.8 116.8 33.3 74.9 75.3 25.1 125.2-1.9 193.2.3 263c1.3 38.9 9.7 72.6 26.8 106.9 33.1 66.7 93.1 115.2 165.7 134 50.9 13.2 106.7 9.8 156-9.4 34.9-13.7 63.9-33 90.7-60.6 20.5-21 34-40.4 46.5-66.3 11.9-24.6 19-47.4 23.2-74.1 3.1-20 3.1-55 0-75-4.3-27.3-11.4-50-23.7-75-13.2-27-26.9-46.1-48.9-68C396.1 35 349.1 11.3 292 2.5 279.6.6 245.4-.2 232.3 1zm45.8 14c91.2 9 168.5 66.7 202.5 151.2 34.5 85.9 16.5 184.5-46.2 252.9-80.5 87.6-210.4 104.2-310.2 39.6C20.1 391.5-16 254.5 41.4 144.5 72.1 85.6 125 42.2 188.8 23.6c14-4.1 31.5-7.3 49.2-9 8.3-.7 30.6-.5 40.1.4z"/><path d="M296.8 68.2c-10 1.3-21.8 9.1-21.8 14.5 0 2.8 4.1 7.3 6.6 7.3 1 0 4.2-1.7 7.2-3.7 4.6-3.2 6.3-3.8 12-4.1 5.6-.3 7.4 0 11.2 2 11.8 6.3 14.6 21.5 5.9 32.4-3.4 4.2-3.7 7.2-1.1 10.5 2.5 3 7.4 3 10.8-.1 1.3-1.4 3.9-5.4 5.7-8.9 2.9-5.9 3.2-7.5 3.2-15.6 0-7.6-.4-9.8-2.6-14.5-6.7-14.1-21.2-21.9-37.1-19.8zM391.2 131.1c-6.4 2.5-14.2 9.6-14.2 12.8 0 2.7 4.2 7.1 6.7 7.1 1 0 4.3-1.6 7.3-3.5 6.7-4.4 8.6-4.9 15.6-4.3 10.6.9 18.4 9.6 18.4 20.5 0 5.7-1.4 9.6-5.5 15.2-1.4 1.9-2.5 4.2-2.5 5.3 0 2.6 4.4 6.8 7.1 6.8 3.4 0 10.3-7.9 12.9-14.7 3.1-8.2 2.5-20.5-1.4-28.1-3.4-6.7-9.1-12.4-15.8-15.8-7.4-3.8-20.7-4.4-28.6-1.3zM306.7 194c-8.2 2.1-17.2 8.5-18.2 13-.8 3.5 2.7 8 6.2 8 1.5 0 5-1.6 7.8-3.5 11.5-8 25.4-4.5 31.7 7.8 3.2 6.4 2.3 15-2.5 22-4.3 6.2-4.5 7.5-1.6 11.1 4.4 5.7 11 2.2 16.7-8.8 3.7-7.3 4.3-19.8 1.2-27.8-6-15.9-24.9-25.9-41.3-21.8zM418.6 238.4c-7 2.9-13.6 9-13.6 12.3 0 2.8 4.1 7.3 6.6 7.3 1 0 4.2-1.7 7.1-3.7 9.6-6.6 20.9-5.6 28.5 2.4 7.5 7.9 7.7 19.7.3 28.5-3.3 3.9-3.3 8 .1 10.7 1.5 1.2 3.5 2.1 4.5 2.1 3.1 0 7.7-4.9 11.1-11.8 3-5.9 3.3-7.6 3.3-15.2 0-7.2-.4-9.4-2.9-14.7-3.3-7.3-10.4-14.4-17.4-17.6-3.2-1.4-7.3-2.2-13.2-2.4-7.3-.3-9.3 0-14.4 2.1z"/></svg>
