<svg xmlns="http://www.w3.org/2000/svg" viewBox="0 0 512.001 512.001"><path d="M452.534 173.14c0-8.363-6.78-15.144-15.143-15.144H74.611c-8.363 0-15.144 6.78-15.144 15.144 0 77.199 44.748 144.133 109.662 176.257l-27.685 144.609c-1.573 8.214 3.811 16.148 12.026 17.721.962.185 1.919.274 2.864.274 7.12 0 13.468-5.047 14.857-12.3l13-67.906h143.611l13.008 67.908c1.389 7.252 7.735 12.298 14.856 12.298.945 0 1.904-.089 2.866-.274 8.214-1.574 13.597-9.507 12.024-17.722l-27.7-144.599c64.923-32.123 109.678-99.061 109.678-176.266zM189.99 401.508l7.781-40.641c18.407 5.721 37.965 8.806 58.23 8.806 20.26 0 39.812-3.083 58.216-8.802l7.785 40.637H189.99zM256 339.387c-86.565 0-157.89-66.502-165.562-151.103h331.124c-7.672 84.6-78.996 151.103-165.562 151.103zM197.865 78.198c3.552-3.652 12.138-13.667 15.168-27.755 2.503-11.635 1.863-29.077-15.394-46.085-5.955-5.871-15.543-5.803-21.415.154-5.871 5.955-5.802 15.544.154 21.415 8.096 7.981 7.898 14.179 7.045 18.149-1.453 6.758-6.311 12.02-7.27 13.006-3.552 3.652-12.138 13.667-15.168 27.755-2.503 11.635-1.863 29.077 15.394 46.085a15.094 15.094 0 0010.63 4.358c3.912 0 7.822-1.506 10.785-4.513 5.871-5.955 5.802-15.544-.154-21.415-8.096-7.981-7.898-14.179-7.045-18.149 1.453-6.756 6.311-12.018 7.27-13.005zM266.856 78.198c3.552-3.652 12.138-13.667 15.168-27.755 2.503-11.635 1.863-29.077-15.394-46.085-5.955-5.871-15.544-5.803-21.415.154-5.871 5.955-5.802 15.544.154 21.415 8.096 7.981 7.898 14.179 7.045 18.149-1.453 6.758-6.311 12.02-7.27 13.006-3.552 3.652-12.138 13.667-15.168 27.755-2.503 11.635-1.863 29.077 15.394 46.085A15.09 15.09 0 00256 135.28c3.911 0 7.822-1.506 10.785-4.513 5.871-5.955 5.802-15.544-.154-21.415-8.096-7.981-7.898-14.179-7.045-18.149 1.453-6.756 6.311-12.018 7.27-13.005zM335.846 78.198c3.552-3.652 12.138-13.667 15.168-27.755 2.503-11.635 1.863-29.077-15.394-46.085-5.955-5.871-15.543-5.803-21.415.154-5.871 5.955-5.802 15.544.154 21.415 8.096 7.981 7.898 14.179 7.045 18.149-1.453 6.758-6.311 12.02-7.27 13.006-3.552 3.652-12.138 13.667-15.168 27.755-2.503 11.635-1.863 29.077 15.394 46.085a15.092 15.092 0 0010.63 4.358c3.912 0 7.822-1.506 10.785-4.513 5.871-5.955 5.802-15.544-.154-21.415-8.096-7.981-7.898-14.179-7.045-18.149 1.453-6.756 6.311-12.018 7.27-13.005z"/></svg>