<svg id="Layer_1" enable-background="new 0 0 512 512" viewBox="0 0 512 512" xmlns="http://www.w3.org/2000/svg"><g><path d="m391.768 15.212c-21.221 0-41.379 7.285-57.47 20.419-19.982-22.579-48.562-35.631-79.434-35.631-31.036 0-59.725 13.169-79.714 35.941-15.78-12.606-35.431-19.594-56.054-19.594-49.583 0-89.921 40.339-89.921 89.922 0 39.039 25.079 73.084 61.177 85.211v305.52c0 8.284 6.716 15 15 15h298.108c8.284 0 15-6.716 15-15v-303.66c16.257-4.987 30.927-14.497 42.197-27.525 14.295-16.524 22.168-37.672 22.168-59.545 0-50.209-40.848-91.058-91.057-91.058zm-3.308 466.788h-268.108v-36.004h268.108zm12.713-315.394c-7.314 1.128-12.712 7.423-12.712 14.824v234.565h-268.109v-236.085c0-7.229-5.156-13.43-12.264-14.748-28.342-5.258-48.913-30.025-48.913-58.893 0-33.041 26.881-59.922 59.921-59.922 17.977 0 34.849 7.972 46.291 21.872 3.083 3.745 7.788 5.76 12.625 5.431 4.839-.338 9.216-2.995 11.749-7.132 13.998-22.867 38.336-36.518 65.103-36.518 26.677 0 50.972 13.583 64.989 36.336 2.552 4.142 6.955 6.789 11.81 7.101 4.858.32 9.561-1.75 12.621-5.533 11.67-14.421 28.977-22.691 47.484-22.691 33.667 0 61.058 27.391 61.058 61.058-.001 29.852-22.206 55.792-51.653 60.335z"/><path d="m177.007 237.712c-8.284 0-15 6.716-15 15v118.856c0 8.284 6.716 15 15 15s15-6.716 15-15v-118.856c0-8.284-6.716-15-15-15z"/><path d="m255.797 237.712c-8.284 0-15 6.716-15 15v118.856c0 8.284 6.716 15 15 15s15-6.716 15-15v-118.856c0-8.284-6.715-15-15-15z"/><path d="m334.588 237.712c-8.284 0-15 6.716-15 15v118.856c0 8.284 6.716 15 15 15s15-6.716 15-15v-118.856c0-8.284-6.715-15-15-15z"/></g></svg>
