<svg xmlns="http://www.w3.org/2000/svg" viewBox="0 0 375 375" version="1.0" contentScriptType="text/ecmascript"><g stroke="null" fill="#81b29a"><path d="M187.938 4.691C86.833 4.691 4.563 86.976 4.563 188.066c0 101.105 82.27 183.375 183.375 183.375 101.087 0 183.375-82.27 183.375-183.375 0-101.162-82.288-183.375-183.375-183.375zM14.586 188.066c0-95.594 77.754-173.349 173.348-173.349 84.95 0 155.836 61.41 170.54 142.182-21.634 1.437-61.273 18.404-71.773 23.483a140.23 140.23 0 0 0-4.397 2.191v-.546c0-51.989-42.305-94.293-94.294-94.293-52.005 0-94.309 42.304-94.309 94.293 0 1.035 0 1.998.076 3.022a295.182 295.182 0 0 0-31.94 12.156c-23.56 10.38-38.59 13.609-45.458 14.557a149.395 149.395 0 0 1-1.793-23.692v-.004zm257.62-6.039c0 1.922-.077 3.776-.21 5.702A3221.949 3221.949 0 0 1 240 203.6c-1.304-.56-2.68-1.11-3.98-1.656-55.219-22.733-81.875-25.337-102.485-24.791-8.158.208-18.537 2.058-29.867 5.08v-.134c0-46.492 37.774-84.267 84.267-84.267 46.425-.076 84.271 37.699 84.271 84.192v.003zM17.886 221.652c7.893-1.157 23.768-4.663 47.873-15.315 25.129-11.266 51.842-18.817 68.054-19.295 18.954-.545 43.548 1.858 94.029 22.32-25.011 12.02-53.855 25.276-78.096 34.484-43.889 16.69-105.427 16.069-119.775 15.656a172.598 172.598 0 0 1-12.085-37.85zm170.051 139.69c-24.033 0-46.91-4.927-67.79-13.798 5.983-4.116 14.216-10.5 21.16-18.066 12.082-13.177 59.26-47.725 104.45-41.963 34.002 4.337 60.162 11.474 72.053 15.117-31.804 35.982-78.229 58.71-129.877 58.71h.004zm136.806-67.091c-9.613-3.093-38.248-11.607-77.74-16.687-49.176-6.323-100.142 30.902-113.19 45.117-8.514 9.344-19.647 16.839-24.385 19.856a174.562 174.562 0 0 1-74.438-72.94c1.982 0 4.245.06 6.797.06 24.579 0 73.49-2.058 111.469-16.482 27.543-10.5 59.954-25.542 87.008-38.661 17.725 7.494 34.488 15.045 49.59 21.914 23.767 10.78 43.267 19.56 55.973 23.146a176.62 176.62 0 0 1-21.088 34.677h.004zm-30.773-67.03c-12.839-5.778-26.917-12.161-41.754-18.541 9.268-4.53 17.589-8.719 24.518-12.157a946.765 946.765 0 0 1 14.291-7.077c19.84-9.477 53.707-22.05 68.957-22.597.815 6.945 1.304 14.007 1.304 21.217 0 21.918-4.132 42.869-11.536 62.164-11.61-3.022-32.281-12.366-55.78-23.01zm0 0"/><path xmlns="http://www.w3.org/2000/svg" d="M77.977 129.284a11.186 11.186 0 0 1-8.233-8.249c-.076-.341-.565-.341-.622 0a11.183 11.183 0 0 1-8.248 8.249.318.318 0 0 0 0 .621 11.186 11.186 0 0 1 8.248 8.234c.057.352.546.352.622 0a11.19 11.19 0 0 1 8.233-8.234c.342-.151.342-.55 0-.621zM247.55 69.387c-4.056-.948-7.21-4.178-8.248-8.234-.057-.34-.546-.34-.607 0-.962 4.056-4.188 7.21-8.248 8.234-.341.076-.341.56 0 .621 4.056.963 7.214 4.19 8.248 8.25.061.34.55.34.607 0 .963-4.057 4.192-7.215 8.248-8.25.342-.06.342-.55 0-.621zm73.146 75.56c-4.056-.963-7.206-4.189-8.245-8.245a.318.318 0 0 0-.622 0c-.962 4.056-4.188 7.21-8.233 8.245a.303.303 0 0 0 0 .606c4.045.963 7.214 4.193 8.233 8.249.076.341.55.341.622 0 .963-4.056 4.193-7.21 8.249-8.245.34-.06.34-.55 0-.606l-.004-.004zm0 0"/></g></svg>
