<?xml version="1.0" standalone="no"?>
<!DOCTYPE svg PUBLIC "-//W3C//DTD SVG 20010904//EN"
 "http://www.w3.org/TR/2001/REC-SVG-20010904/DTD/svg10.dtd">
<svg version="1.0" xmlns="http://www.w3.org/2000/svg"
 width="400.000000pt" height="550.000000pt" viewBox="0 0 400.000000 550.000000"
 preserveAspectRatio="xMidYMid meet">

<g transform="translate(0.000000,550.000000) scale(0.100000,-0.100000)"
fill="#000000" stroke="none">
<path d="M1780 5400 c-424 -59 -780 -233 -1073 -526 -218 -218 -373 -475 -461
-766 -60 -199 -71 -286 -71 -538 1 -205 3 -236 28 -351 140 -658 597 -1173
1225 -1379 216 -71 314 -85 577 -85 210 1 241 3 356 28 367 78 677 246 939
509 360 362 545 836 527 1352 -8 235 -47 419 -132 626 -102 250 -234 441 -443
641 -258 248 -571 405 -947 476 -95 18 -430 26 -525 13z m551 -118 c363 -76
657 -237 914 -504 169 -175 284 -353 374 -581 32 -79 81 -254 81 -287 0 -13
-18 -20 -87 -34 -116 -22 -347 -100 -508 -171 -71 -31 -137 -59 -146 -61 -13
-5 -17 8 -22 78 -28 360 -283 687 -625 804 -131 45 -223 58 -362 51 -176 -9
-317 -55 -467 -153 -244 -158 -400 -425 -421 -720 l-7 -96 -105 -38 c-58 -20
-166 -63 -240 -94 -133 -57 -320 -118 -392 -129 l-37 -6 -7 66 c-12 116 2 407
26 518 153 719 715 1252 1445 1370 130 21 457 13 586 -13z m-103 -831 c224
-65 419 -226 523 -432 54 -109 79 -205 86 -331 l6 -108 -158 -75 c-86 -41
-161 -75 -167 -75 -6 0 -87 29 -180 65 -201 78 -432 146 -578 171 -152 26
-375 24 -500 -4 -52 -12 -96 -22 -99 -22 -15 0 12 180 39 262 100 301 344 509
670 572 63 12 286 -2 358 -23z m1498 -717 c11 -95 -3 -379 -25 -487 -21 -102
-64 -252 -80 -276 -15 -24 -100 10 -681 269 -151 67 -279 126 -283 130 -11 10
407 215 568 279 197 79 396 139 462 140 31 1 32 0 39 -55z m-1936 -173 c52
-10 145 -33 205 -51 118 -34 374 -127 389 -140 5 -5 -20 -22 -55 -38 -294
-136 -373 -172 -508 -229 -281 -118 -478 -173 -753 -208 -132 -17 -516 -38
-597 -33 l-54 3 -34 88 c-31 81 -83 258 -83 282 0 6 30 16 67 23 91 17 237 67
418 142 231 97 395 148 585 184 57 11 328 -4 420 -23z m926 -330 c98 -43 285
-126 414 -183 221 -99 416 -178 440 -178 22 0 -151 -303 -194 -339 -10 -8 -45
-2 -142 24 -162 44 -366 87 -554 116 -113 17 -169 20 -255 16 -328 -18 -691
-191 -980 -467 -99 -95 -209 -180 -232 -180 -9 0 -51 21 -94 47 -242 144 -455
355 -605 599 -23 38 -41 70 -40 71 0 0 105 6 233 12 467 23 725 72 1045 200
146 58 454 195 628 279 69 33 132 61 141 61 9 1 97 -34 195 -78z m-3 -666
c232 -36 577 -117 577 -134 0 -12 -183 -186 -245 -232 -235 -178 -507 -291
-800 -335 -153 -23 -439 -15 -583 15 -106 22 -310 85 -325 100 -5 5 11 23 35
42 24 19 91 80 150 136 125 118 287 230 438 302 273 129 448 154 753 106z"/>
<path d="M2492 4815 c-7 -14 -23 -30 -36 -36 l-24 -11 39 -38 39 -37 39 37 39
38 -24 11 c-13 6 -29 22 -36 36 -6 14 -14 25 -18 25 -4 0 -12 -11 -18 -25z"/>
<path d="M802 4225 c-6 -14 -25 -33 -42 -43 l-30 -19 25 -11 c14 -6 33 -25 43
-42 l19 -30 11 25 c6 14 25 33 42 43 l30 19 -25 11 c-14 6 -33 25 -43 42 l-19
30 -11 -25z"/>
<path d="M3204 4044 l-41 -42 23 -11 c14 -6 29 -22 36 -36 13 -30 24 -32 33
-6 3 11 20 28 37 39 31 20 31 20 9 32 -12 6 -30 23 -39 38 l-17 27 -41 -41z"/>
<path d="M1477 1620 c-8 -11 -29 -70 -48 -131 -36 -120 -44 -129 -113 -129
-42 0 -71 -21 -62 -45 5 -15 14 -17 64 -11 l58 7 -22 -88 c-27 -103 -30 -163
-9 -202 23 -45 70 -54 132 -24 32 15 143 135 143 155 0 4 -14 8 -31 8 -26 0
-42 -12 -90 -62 -56 -60 -59 -62 -74 -44 -20 26 -19 42 8 161 l22 100 41 10
c41 10 74 30 74 46 0 4 -22 9 -49 11 l-49 3 39 120 c21 66 39 123 39 128 0 17
-59 6 -73 -13z"/>
<path d="M405 1586 c-19 -14 -20 -26 -19 -193 1 -176 24 -397 45 -417 14 -15
62 6 76 34 7 14 33 91 58 171 62 201 108 309 152 352 22 23 33 42 30 52 -19
48 -111 -24 -162 -128 -19 -40 -51 -115 -70 -167 -19 -52 -35 -93 -36 -90 -1
3 -5 93 -8 200 -6 185 -7 195 -26 198 -11 1 -29 -4 -40 -12z"/>
<path d="M818 1588 c-10 -7 -21 -28 -24 -45 -6 -31 -5 -33 24 -33 35 0 52 18
55 57 2 21 -3 29 -18 31 -11 1 -28 -3 -37 -10z"/>
<path d="M2361 1591 c-12 -8 -151 -561 -151 -603 0 -10 7 -18 15 -18 21 0 68
25 84 44 21 25 65 19 106 -14 41 -33 61 -36 88 -16 26 20 22 28 -32 64 -44 30
-55 34 -105 30 -31 -1 -56 0 -56 3 0 7 109 475 116 502 4 13 -1 17 -23 17 -15
0 -34 -4 -42 -9z"/>
<path d="M1022 1467 c-18 -5 -48 -27 -67 -49 -29 -31 -35 -46 -35 -83 0 -55
33 -96 124 -154 59 -37 106 -82 106 -102 0 -41 -111 -54 -167 -19 -37 22 -39
27 -18 50 14 15 14 18 -1 30 -13 12 -21 11 -50 -5 -66 -36 -51 -100 34 -137
79 -35 227 -12 270 41 18 23 8 89 -20 118 -13 14 -53 42 -90 64 -37 21 -76 51
-87 65 -28 36 -27 85 2 112 29 28 57 28 91 1 20 -16 26 -29 26 -60 0 -35 3
-39 24 -39 35 0 56 26 56 68 0 87 -92 133 -198 99z"/>
<path d="M802 1453 c-16 -15 -25 -55 -51 -228 -17 -115 -31 -218 -31 -227 0
-12 8 -18 23 -18 44 0 54 26 86 237 17 112 31 214 31 228 0 30 -28 34 -58 8z"/>
<path d="M1842 1455 c-36 -16 -119 -97 -141 -138 -10 -19 -11 -31 -4 -38 20
-20 59 3 102 57 23 29 51 59 62 64 18 10 19 7 19 -49 l0 -60 -82 -42 c-141
-69 -178 -109 -178 -187 0 -75 64 -92 173 -48 l57 24 0 -44 c0 -39 3 -44 23
-44 12 0 32 7 44 15 17 12 20 22 16 54 -3 22 -2 48 2 58 4 10 9 34 10 53 1 19
6 98 10 174 8 129 7 140 -10 152 -24 18 -61 17 -103 -1z m28 -257 c0 -13 -3
-40 -7 -62 -5 -35 -11 -41 -61 -63 -68 -30 -96 -28 -100 8 -4 35 28 71 98 109
66 36 70 36 70 8z"/>
<path d="M2772 1455 c-36 -16 -119 -97 -141 -138 -10 -19 -11 -31 -4 -38 20
-20 59 3 102 57 23 29 51 59 62 64 18 10 19 7 19 -49 l0 -60 -82 -42 c-141
-69 -178 -109 -178 -187 0 -75 64 -92 173 -48 l57 24 0 -44 c0 -39 3 -44 23
-44 12 0 32 7 44 15 17 12 20 22 16 54 -3 22 -2 48 2 58 4 10 9 34 10 53 1 19
6 98 10 174 8 129 7 140 -10 152 -24 18 -61 17 -103 -1z m28 -257 c0 -13 -3
-40 -7 -62 -5 -35 -11 -41 -61 -63 -68 -30 -96 -28 -100 8 -4 35 28 71 98 109
66 36 70 36 70 8z"/>
<path d="M3103 1451 c-53 -33 -112 -153 -152 -313 -27 -106 -27 -162 -1 -188
35 -35 68 -24 141 46 l45 45 -17 -117 c-10 -64 -20 -119 -23 -121 -3 -3 -13
11 -22 31 -15 30 -23 36 -50 36 -62 0 -62 -20 2 -130 64 -109 81 -120 123 -77
18 20 24 46 37 162 8 76 27 198 40 269 62 319 62 315 3 352 -47 29 -83 30
-126 5z m53 -66 c4 -8 13 -15 21 -15 40 0 -42 -215 -119 -312 -16 -21 -34 -38
-40 -38 -26 0 34 225 88 333 25 48 40 58 50 32z"/>
<path d="M3483 1455 c-117 -51 -237 -309 -193 -415 14 -35 55 -60 97 -60 67 1
178 75 232 156 28 43 31 54 31 129 0 67 -4 87 -20 108 -11 14 -20 32 -20 41 0
25 -37 56 -67 56 -16 -1 -42 -7 -60 -15z m57 -103 c37 -36 40 -43 40 -91 0
-85 -56 -166 -146 -208 -28 -14 -35 -14 -50 -2 -23 19 -15 147 14 212 23 52
78 127 92 127 5 0 27 -17 50 -38z"/>
<path d="M2635 678 c-5 -13 -55 -430 -55 -454 0 -18 34 -18 48 -1 8 9 62 413
62 461 0 12 -51 6 -55 -6z"/>
<path d="M1462 662 c-7 -5 -43 -66 -81 -136 -54 -101 -75 -131 -101 -144 -32
-16 -39 -39 -12 -36 16 2 17 5 -29 -76 -23 -39 -39 -74 -36 -77 4 -3 16 -3 29
0 15 4 39 33 71 87 50 83 71 100 126 100 27 0 28 -2 40 -85 14 -104 18 -115
41 -115 37 0 42 23 25 112 -8 45 -18 148 -23 228 -6 117 -10 145 -22 147 -8 2
-21 -1 -28 -5z m-12 -177 l0 -65 -31 0 c-17 0 -29 4 -27 8 2 4 14 33 27 65 14
31 26 57 28 57 2 0 3 -29 3 -65z"/>
<path d="M1640 555 c-19 -23 -49 -157 -56 -255 -7 -86 -6 -90 13 -90 32 0 40
18 47 105 4 44 14 94 22 111 16 34 81 100 71 72 -3 -9 -9 -33 -13 -53 -6 -34
-5 -37 17 -33 30 4 50 45 52 106 2 44 0 47 -24 50 -17 2 -37 -6 -58 -24 l-32
-27 7 27 c5 21 3 26 -14 26 -11 0 -25 -7 -32 -15z"/>
<path d="M1924 550 c-27 -11 -60 -52 -75 -94 -6 -18 -25 -40 -41 -49 -29 -17
-30 -37 -2 -37 10 0 14 -14 14 -55 0 -46 4 -60 25 -80 26 -27 63 -32 98 -14
26 14 97 80 97 91 0 19 -45 6 -77 -22 -37 -33 -68 -39 -77 -14 -3 9 -6 39 -6
68 l0 52 81 29 c92 34 105 45 90 74 -27 49 -79 71 -127 51z m58 -66 c-5 -12
-71 -38 -79 -31 -3 3 5 20 17 37 20 29 24 30 44 17 11 -8 19 -18 18 -23z"/>
<path d="M2200 524 l-40 -36 0 26 c0 19 -5 26 -19 26 -10 0 -23 -6 -28 -12 -9
-12 -26 -97 -39 -193 -3 -21 -9 -58 -13 -82 -8 -43 -6 -53 13 -53 27 1 39 23
51 98 10 60 21 92 44 124 52 74 69 93 77 85 4 -4 -1 -71 -11 -149 -23 -182
-23 -172 -3 -176 25 -5 57 31 51 59 -2 13 3 71 11 128 9 58 16 119 16 136 0
65 -50 73 -110 19z"/>
<path d="M2465 542 c-38 -23 -95 -88 -95 -107 0 -30 38 -14 74 30 21 25 42 45
47 45 5 0 9 -18 9 -40 0 -39 -1 -40 -69 -74 -87 -44 -113 -76 -109 -130 3 -40
4 -41 42 -44 21 -2 56 4 77 12 l39 16 0 -30 c0 -23 5 -30 19 -30 37 0 39 7 57
247 7 100 0 123 -40 123 -11 0 -35 -8 -51 -18z m27 -202 c-4 -36 -9 -43 -43
-60 -60 -31 -88 -23 -74 21 6 19 89 78 110 79 6 0 9 -17 7 -40z"/>
</g>
</svg>
