<svg xmlns="http://www.w3.org/2000/svg" viewBox="0 0 470 470"><path d="M401.17 68.83C356.785 24.444 297.771 0 235 0S113.215 24.444 68.83 68.83C24.444 113.215 0 172.229 0 235s24.444 121.785 68.83 166.17C113.215 445.556 172.229 470 235 470s121.785-24.444 166.17-68.83C445.556 356.785 470 297.771 470 235s-24.444-121.785-68.83-166.17zM235 455c-121.309 0-220-98.691-220-220S113.691 15 235 15s220 98.691 220 220-98.691 220-220 220z"/><path d="M390.959 312.5a7.5 7.5 0 00-7.5-7.5H176.542a7.5 7.5 0 000 15h206.917a7.5 7.5 0 007.5-7.5zM154.042 312.5a7.5 7.5 0 00-7.5-7.5h-60a7.5 7.5 0 000 15h60a7.5 7.5 0 007.5-7.5zM106.652 350h176a7.5 7.5 0 000-15h-176a7.5 7.5 0 000 15zM211.538 365a7.5 7.5 0 000 15h119a7.5 7.5 0 000-15h-119z"/><path d="M426.716 275H43.284a7.5 7.5 0 00-7.279 9.306c11.642 46.937 39.798 88.487 79.282 116.995a7.5 7.5 0 108.781-12.161C90.089 364.606 65.162 329.671 53.127 290h363.754C392.755 369.96 319.297 425 235 425c-30.364 0-59.405-6.994-86.318-20.786a7.5 7.5 0 00-10.095 3.254 7.5 7.5 0 003.254 10.095C170.891 432.451 202.234 440 235 440c46.662 0 90.651-15.337 127.214-44.354 35.467-28.147 60.959-67.689 71.782-111.341a7.499 7.499 0 00-7.28-9.305zM431.73 245h-36.732v-15h37.111a7.499 7.499 0 006.974-10.258L394.472 106.89a7.5 7.5 0 00-13.95 0l-34.703 87.789a7.5 7.5 0 1013.949 5.515l27.729-70.145L421.08 215h-58.377a7.5 7.5 0 000 15h17.295v15h-86.666v-15h37.111a7.499 7.499 0 006.974-10.258L292.806 106.89a7.5 7.5 0 00-13.95 0l-34.703 87.789a7.5 7.5 0 1013.949 5.515l27.729-70.145L319.414 215h-58.377a7.5 7.5 0 000 15h17.295v15h-86.665v-15h37.111a7.499 7.499 0 006.974-10.258L191.141 106.89a7.5 7.5 0 00-13.95 0l-34.703 87.789a7.5 7.5 0 1013.949 5.515l27.729-70.145L217.749 215h-58.377a7.5 7.5 0 000 15h17.295v15H90.002v-15h37.111a7.499 7.499 0 006.974-10.258l-44.61-112.851a7.5 7.5 0 00-13.95 0l-44.61 112.852a7.502 7.502 0 006.974 10.258h37.111v15H38.269a7.5 7.5 0 000 15H431.73a7.5 7.5 0 000-15.001zM82.502 130.049L116.083 215H48.92l33.582-84.951z"/><path d="M235 105c20.678 0 37.5-16.822 37.5-37.5S255.678 30 235 30s-37.5 16.822-37.5 37.5S214.322 105 235 105zm0-60c12.407 0 22.5 10.093 22.5 22.5S247.407 90 235 90s-22.5-10.093-22.5-22.5S222.593 45 235 45z"/></svg>
