<svg version="1.0" xmlns="http://www.w3.org/2000/svg" viewBox="0 0 512 512"><path d="M278 1.1C263.1 4 248.4 18 243.9 33.5c-1.8 6.4-1.8 18.6 0 25 3.4 11.7 12.7 23 23.5 28.5 20.8 10.5 45.9 2.8 58-18 4.3-7.4 6.1-14 6.1-23s-1.8-15.6-6.1-23C315.5 6 296.9-2.6 278 1.1zM337.4 93.8c-2.8 1-6.8 3.2-9 4.9-2.6 2.1-13.4 17.4-32.9 46.6l-29 43.5-28.2 14c-15.5 7.8-29.7 15.5-31.7 17.2-1.9 1.7-4.8 5.7-6.3 8.8-2.3 4.7-2.8 7-2.8 13.2 0 6.3.5 8.4 3 13.3 5.2 10.5 15 16.2 27.3 16.2l7.2-.1 32.7-16.3c17.9-8.9 34.6-17.6 37-19.2 3.5-2.4 8.5-9.2 24.5-33.2 18.4-27.6 20.2-29.9 21.4-28.2 2.1 2.8 10.8 20 13.8 27.2 6.7 16 11.3 37.5 12.3 57.5l.6 12.8h60l-.6-14.3c-2.6-57.1-23.6-108-62-150.1-5.9-6.4-9.3-9.2-14-11.5-8.2-4-16.4-4.8-23.3-2.3zM66.1 273.1c-22.7 4.4-39.1 27.8-35.3 50.5 3.2 19.6 18 34.4 37.6 37.6 28.9 4.8 55.6-21.9 50.8-50.8-4.2-25.5-28.1-42.2-53.1-37.3zM149.4 314.7c.1 16.6-2.5 27.5-9.5 39.5l-2.8 4.7 3.2 1.3c2.5 1 19.7 1.3 82.5 1.6l79.2.3V302H149.4v12.7zM332 370.9c0 42.6.4 70.9 1 74.2 3.4 18 17.9 32.5 35.9 35.9 3 .5 16.1 1 29.2 1H422v9c0 11.2 2 15.9 8 19 5 2.5 9 2.5 14 0 6-3.1 8-7.8 8-19v-9h8.9c4.8 0 11.2-.5 14.2-1 18-3.4 32.5-17.9 35.9-35.9 1.3-7.2 1.3-99 0-106.2-3.4-18-17.9-32.5-35.9-35.9-3.3-.6-31.6-1-74.2-1H332v68.9zM20.5 393.8C-.5 401.1-6.7 427.3 9 443c7.6 7.6 10.8 8.5 32.3 8.8l18.7.4v23.9c0 22.1.2 24.3 2 27.9 2.3 4.5 8 8 13 8s10.7-3.5 13-8c1.8-3.6 2-5.8 2-28v-24h212v-60H163.8c-128.5.1-138.7.2-143.3 1.8z"/></svg>
