<svg version="1.0" xmlns="http://www.w3.org/2000/svg" viewBox="0 0 512 512"><path d="M48 7.5V15H0v124.4c0 106.8.2 125.5 1.5 132.3 7.8 40.9 37.3 74.1 77 86.6 4.4 1.4 10.1 2.8 12.8 3.2l4.7.7V393c0 34.8.7 42.4 5.4 56.3 9.9 29.1 33.9 51.5 64.1 59.9 7.5 2.1 10 2.2 41 2.3 31 0 33.5-.1 41.8-2.2 33.3-8.5 59-34.4 67.9-68.3l2.2-8.5.6-123c.5-116.5.6-123.3 2.4-128 7.7-20.9 21.2-34.2 41.6-41.1 8-2.7 23.3-2.6 32.5.3 18.7 5.9 34.4 21.4 40.7 40.3 2.1 6.1 2.3 8.5 2.6 43.5l.3 37-4.8 1.7c-16.2 5.7-30.2 21.4-34.8 38.8-1.9 7.2-1.9 22.1 0 29.4 4.7 18 19 33.3 37.1 39.7 7.4 2.7 21.2 3.6 29.6 2 20.8-4 38.9-21.1 44.3-41.7 1.9-7.5 1.9-22.3 0-29.9-3.8-14.6-16.1-29.5-29.6-36-4-1.9-7.9-3.5-8.5-3.5-.9 0-1.3-9.6-1.6-38.8-.4-35.6-.6-39.3-2.6-46.3-9.8-35.7-34.8-60.2-69.7-68.5-9.5-2.3-29.6-2.3-39 0-34.7 8.3-59.6 32.4-69.7 67.1l-2.3 8-.5 123-.5 123-2.7 8c-5.5 15.9-17.3 29.3-32.1 36.4-4.5 2.2-10.6 4.4-13.5 5-8.4 1.7-55.3 1.4-63.1-.4-19.9-4.7-37.5-21.1-44.3-41.5-2.1-6.1-2.3-8.7-2.6-40.6l-.3-34.2 4.8-.7c7-1 21.8-6 29.4-9.8 35.3-17.9 58.4-51.8 61.9-90.9.5-5.7.9-63.3 1-128.1V15h-49V0h-31v61h31V46h17v189H31V46h17v15h32V0H48v7.5zm143 260.3c0 1.7-4.8 14.9-7 19.2-5.5 11-16.7 23.6-27 30.7-36.6 24.9-87.1 14.8-111.9-22.3-4.5-6.6-9.8-18.7-11.5-25.7L33 267h79c43.4 0 79 .4 79 .8zm281 48.7V334h-34v-35h34v17.5z"/></svg>
