<svg version="1.0" xmlns="http://www.w3.org/2000/svg" viewBox="0 0 512 512"><path d="M51.8 1.6C37.9 4.9 22.5 17 16.6 29.1 10.7 41.4 11 26.8 11 256c0 229.2-.3 214.6 5.6 226.9 3.7 7.6 15.1 18.9 23.1 23 12.7 6.4 5.6 6.1 152.3 6.1 146.7 0 139.6.3 152.3-6.1 8-4.1 19.4-15.4 23.1-23 5.9-12.3 5.6 2.3 5.6-226.9 0-229.2.3-214.6-5.6-226.9-3.7-7.6-15.1-18.9-23.1-23-12.7-6.4-5.5-6.1-152.8-6C80.9.2 56.5.4 51.8 1.6zM325.1 22c10.6 2 19.9 9.1 24.1 18.4l2.3 5.1v421l-2.3 5.1c-4.2 9.3-13.5 16.4-24.1 18.4-7.4 1.4-258.8 1.4-266.2 0-10.6-2-19.9-9.1-24.1-18.4l-2.3-5.1v-421l2.3-5.1c4-8.9 13.6-16.4 23.3-18.3 6.4-1.3 260.3-1.3 267-.1z"/><path d="M57.7 45c-1.5 1.2-3.1 3.8-3.7 5.8-1.4 5.1-1.4 405.3 0 410.4.6 2 2.2 4.6 3.7 5.8 2.6 2 3.1 2 134.3 2 131.2 0 131.7 0 134.3-2 1.5-1.2 3.1-3.8 3.7-5.8 1.4-5.1 1.4-405.3 0-410.4-.6-2-2.2-4.6-3.7-5.8-2.6-2-3.1-2-134.3-2-131.2 0-131.7 0-134.3 2zM309 117.5V171H75V64h234v53.5zm0 202.5v128H75V192h234v128z"/><path d="M125.4 213.7c-1.2.2-3.4 1.8-5 3.4l-2.9 3-.6 19.2c-.8 22.2-1.7 26.5-9.5 44.8-6.2 14.7-8.9 24.1-10.4 35.9-1.4 11.5-1.3 95.7.1 99.8.6 1.7 2.3 3.9 3.7 4.9 2.6 1.7 7.3 1.8 91.2 1.8s88.6-.1 91.2-1.8c1.4-1 3.1-3.2 3.7-4.9 1.4-4.1 1.5-88.3.1-99.8-1.5-11.8-4.2-21.2-10.4-35.9-7.8-18.3-8.7-22.6-9.5-44.8l-.6-19.3-3.3-3.2-3.2-3.3-21.3-.3c-25.4-.4-29.1 0-32.9 3.8-2.7 2.8-2.8 3.1-2.8 14.2 0 13.3-1.4 27.1-3.6 34.8-1.7 6.4-6.7 19-7.4 19-.7 0-5.7-12.6-7.4-19-2.2-7.7-3.6-21.5-3.6-34.6 0-17.9-1-18.5-32.5-18.3-11.5.1-22 .4-23.1.6zm34.6 27.6c0 16.7 3.3 31.6 11.4 50.6 9.2 21.7 8.9 19.6 9.4 69.3l.3 43.8H117v-35.5c0-49.3.8-55.3 10.8-79 6.7-16 9-25.3 10.4-41.8l1.1-13.7H160v6.3zm85.8 7.4c1.4 16.5 3.7 25.8 10.4 41.8 10 23.7 10.8 29.7 10.8 79V405h-64.1l.3-43.8c.5-49.7.2-47.6 9.4-69.3 8.1-19 11.4-33.9 11.4-50.6V235H244.7l1.1 13.7zM417.9 1.4c-9.5 2.7-17.4 10-21 19.6-1.9 4.9-1.9 10.4-1.9 235s0 230.1 1.9 235c2.6 6.9 6.3 11.5 12.4 15.4 19.5 12.7 44.3 1.8 48.7-21.3.6-3.4 1-38.7 1-95.7V299h15.3c17 0 21.7-.9 24.7-4.7 2-2.5 2-3.3 2-102.3s0-99.8-2-102.3c-3-3.8-7.7-4.7-24.7-4.7H459V58.6c0-14.5-.5-28.7-1-31.7-2.9-15.1-14.7-25.7-29.5-26.5-3.3-.2-8.1.3-10.6 1zm16.9 24.1 2.2 2.6v456.1l-2.9 2.9c-5.4 5.4-14.6 3.6-17-3.3-.8-2.2-1.1-70.2-1.1-228 0-186.1.2-225.4 1.3-228.1 2.9-6.9 12.3-8 17.5-2.2zM480 192v85h-21V107h21v85z"/></svg>
