<svg id="Capa_1" enable-background="new 0 0 512 512" viewBox="0 0 512 512" xmlns="http://www.w3.org/2000/svg"><g><g><path d="m437.02 74.98c-48.353-48.351-112.64-74.98-181.02-74.98s-132.667 26.629-181.02 74.98c-48.351 48.353-74.98 112.64-74.98 181.02s26.629 132.667 74.98 181.02c48.353 48.351 112.64 74.98 181.02 74.98s132.667-26.629 181.02-74.98c48.351-48.353 74.98-112.64 74.98-181.02s-26.629-132.667-74.98-181.02zm-340.826 340.826c-42.686-42.686-66.194-99.439-66.194-159.806 0-55.339 19.768-107.632 55.942-148.845l143.639 143.639h-131.637v90.004h221.642l85.259 85.259c-41.213 36.175-93.506 55.943-148.845 55.943-60.367 0-117.12-23.508-159.806-66.194zm193.391-105.008h-76.106v-30.004h46.102zm12.422-30.004h82.049v30.004h-52.045zm-174.063 30.004v-30.004h55.536v30.004zm298.114 94.047-64.046-64.046h52.045v-90.004h-142.05l-164.852-164.853c41.213-36.174 93.506-55.942 148.845-55.942 60.367 0 117.12 23.508 159.806 66.194s66.194 99.439 66.194 159.806c0 55.339-19.768 107.632-55.942 148.845z"/></g><g><path d="m362.1 154.802h-75.771c-8.452 0-15.329-6.876-15.329-15.328s6.876-15.329 15.329-15.329h23.532v-30h-23.532c-24.994 0-45.329 20.334-45.329 45.329s20.334 45.328 45.329 45.328h75.771c11.081 0 20.096 9.015 20.096 20.096v11.04h30v-11.04c0-27.623-22.473-50.096-50.096-50.096z"/></g></g></svg>
