<svg id="Layer_1" enable-background="new 0 0 512 512" viewBox="0 0 512 512" xmlns="http://www.w3.org/2000/svg"><path d="m407.104 206.143c-24.052-13.216-37.847-36.535-37.847-63.977v-55.229c7.701-.634 13.756-7.073 13.756-14.937 0-8.284-6.716-15-15-15h-2v-42c0-8.284-6.716-15-15-15h-60c-8.284 0-15 6.716-15 15v42h-1.999c-8.284 0-15 6.716-15 15 0 7.864 6.055 14.303 13.756 14.937v55.229c0 27.441-13.795 50.76-37.847 63.977-32.497 17.857-58.003 44.934-74.007 76.94-29.564-23.03-66.768-34.459-104.633-31.669-7.415.546-13.311 6.442-13.857 13.857-3.255 44.17 12.824 87.448 44.113 118.737 2.528 2.528 5.14 4.952 7.822 7.282-30.325 7.479-57.908 24.206-78.733 48.345-4.856 5.629-4.857 13.967 0 19.597 28.932 33.535 70.903 52.768 115.153 52.768 24.272 0 48.072-5.78 69.473-16.783 5.457 4.997 11.244 9.688 17.357 14.02 2.536 1.797 5.566 2.763 8.674 2.763h189.458c3.108 0 6.139-.965 8.674-2.763 47.336-33.553 75.596-88.179 75.596-146.125.001-65.331-35.6-125.478-92.909-156.969zm-101.09-176.143h30v27h-30zm-56.643 202.435c16.529-9.083 30.129-22.106 39.332-37.662 9.203-15.557 14.068-33.749 14.068-52.607v-55.14h36.487v55.139c0 18.859 4.864 37.051 14.067 52.607s22.803 28.579 39.332 37.662c29.564 16.246 52.18 41.654 65.115 71.566h-273.516c12.935-29.912 35.551-55.32 65.115-71.565zm-177.271 48.651c28.579 1.073 55.925 12.14 77.242 31.411-4.782 16.212-7.328 33.226-7.328 50.615 0 8.185.584 16.299 1.685 24.302-.245-.021-.491-.033-.736-.053-13.009-5.997-24.929-14.286-35.21-24.567-21.888-21.887-34.503-51.091-35.653-81.708zm-24.306 168.348c22.462-20.836 52.032-32.566 82.986-32.566 6.747 0 13.47.561 20.079 1.653 6.3 19.296 15.824 37.423 28.184 53.552-15.155 6.524-31.567 9.928-48.264 9.928-30.953-.001-60.523-11.731-82.985-32.567zm363.045 32.566h-179.651c-37.141-28.117-59.174-72.209-59.174-118.887 0-9.887.992-19.628 2.881-29.112h292.237c1.89 9.484 2.881 19.225 2.881 29.112.001 46.678-22.033 90.77-59.174 118.887z"/></svg>
