<svg xmlns="http://www.w3.org/2000/svg" viewBox="0 0 480 480"><path d="M440 56H40C17.92 56.026.026 73.92 0 96v256a39.813 39.813 0 0016 31.792V424h48v-32h352v32h48v-40.208A39.813 39.813 0 00480 352V96c-.026-22.08-17.92-39.974-40-40zM48 408H32v-16h16v16zm400 0h-16v-16h16v16zm16-56c0 13.255-10.745 24-24 24H40c-13.255 0-24-10.745-24-24V96c0-13.255 10.745-24 24-24h400c13.255 0 24 10.745 24 24v256z"/><path d="M48 272v72h288V104H48v168zm16-152h256v152H64V120zm0 168h256v40H64v-40zM400 104c-22.091 0-40 17.909-40 40s17.909 40 40 40 40-17.909 40-40c-.026-22.08-17.92-39.974-40-40zm22.629 48.011A23.943 23.943 0 01400 168c-13.224.025-23.964-10.675-23.989-23.899A23.944 23.944 0 01392 121.472V144h16v-22.528c12.473 4.393 19.023 18.066 14.629 30.539zM400 200c-22.091 0-40 17.909-40 40s17.909 40 40 40 40-17.909 40-40c-.026-22.08-17.92-39.974-40-40zm22.629 48.011A23.943 23.943 0 01400 264c-13.224.025-23.964-10.675-23.989-23.899A23.944 23.944 0 01392 217.472V240h16v-22.528c12.473 4.393 19.023 18.066 14.629 30.539zM368 296h64v16h-64zM368 328h64v16h-64z"/></svg>