<svg xmlns="http://www.w3.org/2000/svg" viewBox="0 0 511.963 511.963"><path d="M498.47 374.474c-2.323-2.323-1.051-8.334-.396-10.811 18.569-70.251 18.513-144.499-.166-214.719-1.004-3.773-1.866-9.024.896-11.786 17.546-17.545 17.546-46.094 0-63.639-17.544-17.545-46.094-17.547-63.64 0-2.385 2.434-6.821 8.037-15.015 6.265-107.868-23.322-217.286-23.516-325.214-.58-6.23 1.322-12.743-.287-18.135-5.686-17.545-17.546-46.094-17.546-63.639 0-17.546 17.545-17.546 46.094-.015 63.625l.364.365c2.453 2.453 1.271 8.687.347 12.185-18.492 70.035-18.47 144.067.061 214.092 1.305 4.93 1.398 8.865.235 10.027l-.992.993c-17.546 17.545-17.546 46.094 0 63.64 17.072 17.075 46.073 17.219 63.335.301 3.35-3.121 6.818-7.237 13.344-5.801 110.329 24.213 222.212 24.226 332.541.035 6.455-1.414 10.021 2.691 12.78 5.465 8.772 8.772 20.296 13.158 31.819 13.158s23.047-4.386 31.819-13.159c17.546-17.545 17.546-46.094 0-63.64l-.329-.33zm-29.555-217.817c17.341 65.189 17.395 134.12.154 199.34-4.247 16.068-1.34 30.164 8.187 39.69l.331.331c5.849 5.849 5.849 15.365 0 21.213-5.848 5.849-15.364 5.848-21.185.029l-2.381-2.394c-10.005-10.06-24.241-14.221-38.065-11.19-106.063 23.255-213.621 23.244-319.685-.034a41.246 41.246 0 00-36.922 10.076c-.571.531-3.316 3.074-3.862 3.612-5.654 5.54-15.521 5.495-21.113-.099-5.849-5.849-5.849-15.365.003-21.216l.991-.992c6.439-6.438 12.977-18.415 7.552-38.914-17.205-65.01-17.225-133.739-.057-198.759 4.078-15.444 2.699-30.188-8.489-41.406-5.849-5.849-5.849-15.365 0-21.213 5.491-5.491 14.874-6.346 21.604.392 11.854 11.902 28.752 16.921 45.193 13.426 103.753-22.049 208.939-21.862 312.639.557 14.719 3.183 29.793-1.334 40.323-12.082l2.286-2.334c5.854-5.807 15.336-5.793 21.172.042 5.849 5.849 5.849 15.365 0 21.213l-.342.341c-9.716 9.717-12.675 24.054-8.334 40.371z"/></svg>
