<svg version="1.0" xmlns="http://www.w3.org/2000/svg" viewBox="0 0 512 512"><path d="M187.1 32.1c-12.8 2.5-25.7 12.5-31.1 24.1-3.7 7.9-5 14.6-5 25.9V91H11.8l-4 2.2c-2.4 1.4-4.8 3.8-5.9 6C.1 102.8 0 107.9 0 270.8c0 110 .4 169.8 1 173.3 3.4 18 17.9 32.5 35.9 35.9 7.4 1.4 430.8 1.4 438.2 0 18-3.4 32.5-17.9 35.9-35.9.6-3.5 1-63.2 1-173V103.4l-2.2-4.4c-4.3-8.4.1-8-79-8H361v-8.9c0-4.8-.5-11.2-1-14.2-3.4-18-17.9-32.5-35.9-35.9-6.6-1.2-130.6-1.2-137 .1zM323 63c6 3.1 8 7.8 8 19v9H181v-9c0-11 2-15.9 7.8-18.9 3.6-1.9 6-2 67-2.1 61.5 0 63.4.1 67.2 2zm152.8 59.2c-.3.7-11 32.7-23.7 71.1-16.4 49-24 70.6-25.8 72.7-1.3 1.6-4.1 3.4-6.1 4-2.3.6-20.4 1-46.4 1H331v-9c0-11.2-2-15.9-8-19-3.8-1.9-5.8-2-67-2s-63.2.1-67 2c-6 3.1-8 7.8-8 19v9h-42.7c-26.1 0-44.2-.4-46.5-1-2-.6-4.8-2.4-6.1-4-1.8-2.1-9.4-23.7-25.8-72.7-12.7-38.4-23.4-70.4-23.7-71.1-.3-.9 44.1-1.2 219.8-1.2 175.7 0 220.1.3 219.8 1.2zM57 277c3.2 6.3 12.1 15.2 18.4 18.4 10.7 5.4 12.4 5.6 60.9 5.6H181v9c0 11.2 2 15.9 8 19 3.8 1.9 5.8 2 67 2s63.2-.1 67-2c6-3.1 8-7.8 8-19v-9h44.8c48.4 0 50.1-.2 60.8-5.6 6.3-3.2 15.2-12.1 18.4-18.4 1.3-2.5 7.8-20.9 14.6-41l12.2-36.5.1 119.8c.1 118.2.1 119.8-1.9 123.7-1.3 2.6-3.4 4.7-6 6-3.9 2-5.4 2-218 2s-214.1 0-218-2c-2.6-1.3-4.7-3.4-6-6-2-3.9-2-5.5-1.9-123.7l.1-119.8L42.4 236c6.8 20.1 13.3 38.5 14.6 41zm244 9v15h-90v-30h90v15z"/></svg>
