<svg id="Layer_1" enable-background="new 0 0 512 512" viewBox="0 0 512 512" xmlns="http://www.w3.org/2000/svg"><g><path d="m368.467 0h-224.934c-25.989 0-47.133 21.144-47.133 47.133v385.6c0 20.496 13.273 38.375 32.133 44.693v19.574c0 8.284 6.716 15 15 15s15-6.716 15-15v-17.133h194.934v17.133c0 8.284 6.716 15 15 15s15-6.716 15-15v-19.574c18.858-6.317 32.133-24.192 32.133-44.693v-385.6c0-25.989-21.144-47.133-47.133-47.133zm17.133 432.733c0 4.509-1.829 8.923-5.018 12.111-3.239 3.239-7.542 5.022-12.115 5.022h-224.934c-4.573 0-8.876-1.784-12.116-5.023-3.188-3.187-5.017-7.601-5.017-12.11v-226h259.2zm0-256h-259.2v-129.6c0-9.447 7.686-17.133 17.133-17.133h224.934c9.447 0 17.133 7.686 17.133 17.133z"/><path d="m175.667 64.267c-8.284 0-15 6.716-15 15v48.2c0 8.284 6.716 15 15 15s15-6.716 15-15v-48.2c0-8.285-6.716-15-15-15z"/><path d="m175.667 367.4c8.284 0 15-6.716 15-15v-96.4c0-8.284-6.716-15-15-15s-15 6.716-15 15v96.4c0 8.284 6.715 15 15 15z"/></g></svg>
