<svg height="512" viewBox="0 0 24 24" width="512" xmlns="http://www.w3.org/2000/svg"><path d="M15.5 14c-1.103 0-2-.897-2-2s.897-2 2-2 2 .897 2 2-.897 2-2 2zm0-3a1.001 1.001 0 0 0 0 2 1.001 1.001 0 0 0 0-2zM8.5 14c-1.103 0-2-.897-2-2s.897-2 2-2 2 .897 2 2-.897 2-2 2zm0-3a1.001 1.001 0 0 0 0 2 1.001 1.001 0 0 0 0-2z"/><path d="M18.5 24h-13A2.503 2.503 0 0 1 3 21.5v-12C3 8.122 4.121 7 5.5 7h13C19.879 7 21 8.122 21 9.5v12c0 1.378-1.121 2.5-2.5 2.5zM5.5 8C4.673 8 4 8.673 4 9.5v12c0 .827.673 1.5 1.5 1.5h13c.827 0 1.5-.673 1.5-1.5v-12c0-.827-.673-1.5-1.5-1.5z"/><path d="M3.491 20.5c-1.93 0-3.5-1.57-3.5-3.5v-3c0-1.93 1.57-3.5 3.5-3.5v1a2.503 2.503 0 0 0-2.5 2.5v3c0 1.378 1.121 2.5 2.5 2.5zM20.5 20.5v-1c1.379 0 2.5-1.122 2.5-2.5v-3c0-1.378-1.121-2.5-2.5-2.5v-1c1.93 0 3.5 1.57 3.5 3.5v3c0 1.93-1.57 3.5-3.5 3.5zM12 8a.5.5 0 0 1-.5-.5v-3a.5.5 0 0 1 1 0v3a.5.5 0 0 1-.5.5z"/><path d="M12 5c-1.379 0-2.5-1.122-2.5-2.5S10.621 0 12 0s2.5 1.122 2.5 2.5S13.379 5 12 5zm0-4c-.827 0-1.5.673-1.5 1.5S11.173 4 12 4s1.5-.673 1.5-1.5S12.827 1 12 1zM16.5 21h-9c-.827 0-1.5-.673-1.5-1.5v-2c0-.827.673-1.5 1.5-1.5h9c.827 0 1.5.673 1.5 1.5v2c0 .827-.673 1.5-1.5 1.5zm-9-4a.5.5 0 0 0-.5.5v2a.5.5 0 0 0 .5.5h9a.5.5 0 0 0 .5-.5v-2a.5.5 0 0 0-.5-.5z"/><path d="M10 21a.5.5 0 0 1-.5-.5v-4a.5.5 0 0 1 1 0v4a.5.5 0 0 1-.5.5zM14 21a.5.5 0 0 1-.5-.5v-4a.5.5 0 0 1 1 0v4a.5.5 0 0 1-.5.5z"/></svg>
