<svg xmlns="http://www.w3.org/2000/svg" viewBox="0 0 512.003 512.003"><path d="M492.638 416.168c-35.445-29.635-139.695-117.048-187.5-159.684 25.879-23.721 62.112-58.999 97.354-93.327 40.344-39.302 78.458-76.417 95.729-91 8.76-7.385 13.781-18.24 13.781-29.781 0-14.438-7.51-27.24-20.094-34.24-12.521-6.958-27.26-6.615-39.438.948-39.313 24.385-196.469 137.25-196.469 161.583 0 7.178-.293 15.621-2.85 25.203-11.751-20.152-18.483-38.615-18.483-46.536 0-15.177-51.573-64.615-153.292-146.958-4.219-3.427-10.385-3.115-14.25.75l-64 64a10.652 10.652 0 00-.75 14.25C84.72 183.095 134.157 234.668 149.334 234.668c9.056 0 31.823 8.76 55.227 23.852C157.266 300.56 60.87 381.466 19.388 416.147 7.066 426.449.003 441.605.003 457.73c0 29.927 24.344 54.271 54.271 54.271 16.115 0 31.281-7.073 41.583-19.406 35.645-42.613 119.006-141.934 160.151-187.994 42.456 47.553 130.417 152.456 160.172 188.035 10.292 12.313 25.448 19.365 41.552 19.365 29.927 0 54.271-24.344 54.271-54.271 0-16.104-7.052-31.26-19.365-41.562zM277.336 172.543C288.555 155.022 398.69 67.553 463.721 27.21c5.5-3.385 12.167-3.573 17.813-.438 5.719 3.188 9.135 9.021 9.135 15.604 0 5.24-2.26 10.146-6.208 13.479-17.854 15.073-56.229 52.448-96.854 92.021-35.809 34.887-72.602 70.699-98.298 94.167-1.604-1.518-3.255-3.074-4.431-4.25-6.327-6.327-12.008-13.227-17.279-20.24 8.752-18.362 9.71-33.997 9.737-45.01zM79.493 478.907c-6.24 7.479-15.438 11.76-25.219 11.76-18.167 0-32.938-14.771-32.938-32.938 0-9.792 4.281-18.979 11.74-25.208C75.701 396.87 176.18 312.53 222.33 271.261c5.341 4.263 10.582 8.732 15.465 13.615 1.036 1.036 2.443 2.535 3.746 3.905-40.89 45.647-125.91 146.931-162.048 190.126zm378.239 11.761c-9.781 0-18.958-4.271-25.188-11.719-45.26-54.125-153.365-182.854-179.667-209.156-32.146-32.146-80.802-56.208-101.417-56.208-.104 0-.219.01-.323.01-12.563-4.885-72.802-72.781-126.125-138.188l6.99-6.99 99.125 99.125a10.634 10.634 0 007.542 3.125c2.729 0 5.458-1.042 7.542-3.125 4.167-4.167 4.167-10.917 0-15.083L47.086 53.334l6.25-6.25 99.125 99.125c2.083 2.083 4.813 3.125 7.542 3.125s5.458-1.042 7.542-3.125c4.167-4.167 4.167-10.917 0-15.083L68.42 32.001l6.99-6.99c65.406 53.323 133.292 113.49 137.927 124.323 0 22.229 24.146 71.229 56.458 103.542 26.302 26.302 155.031 134.406 209.156 179.656 7.448 6.24 11.719 15.417 11.719 25.198 0 18.167-14.771 32.938-32.938 32.938z"/></svg>