<svg xmlns="http://www.w3.org/2000/svg" viewBox="0 0 512 512"><path d="M369 186c-5.52 0-10 4.48-10 10s4.48 10 10 10 10-4.48 10-10-4.48-10-10-10zM146 186c-5.52 0-10 4.48-10 10s4.48 10 10 10 10-4.48 10-10-4.48-10-10-10z"/><path d="M482 56H30C13.458 56 0 69.458 0 86v340c0 16.542 13.458 30 30 30h452c16.542 0 30-13.458 30-30V86c0-16.542-13.458-30-30-30zm10 370c0 5.514-4.486 10-10 10H30c-5.514 0-10-4.486-10-10v-90h472v90zm0-110H20V86c0-5.514 4.486-10 10-10h452c5.514 0 10 4.486 10 10v230z"/><path d="M432.189 245.045C443.077 231.069 449 213.992 449 196s-5.923-35.069-16.811-49.046l14.593-14.593c3.905-3.905 3.905-10.237 0-14.143-3.906-3.905-10.236-3.905-14.143 0l-14.593 14.593C404.069 121.923 386.991 116 369 116c-17.99 0-35.066 5.922-49.046 16.812l-14.593-14.593c-3.906-3.905-10.236-3.905-14.143 0-3.905 3.905-3.905 10.237 0 14.143l14.593 14.593C294.923 160.931 289 178.008 289 196c0 17.99 5.922 35.066 16.812 49.046l-14.593 14.593c-3.906 3.905-3.906 10.237 0 14.142 3.906 3.905 10.236 3.905 14.143 0l14.593-14.593C333.931 270.077 351.009 276 369 276c17.99 0 35.066-5.922 49.046-16.812l14.593 14.593c3.906 3.905 10.236 3.905 14.143 0 3.905-3.905 3.905-10.237 0-14.143l-14.593-14.593zm-14.286-14.284l-13.552-13.552c-3.905-3.905-10.235-3.905-14.143 0-3.905 3.905-3.905 10.237 0 14.142l13.552 13.552C393.671 252.103 381.636 256 369 256c-12.637 0-24.673-3.898-34.761-11.097l13.552-13.552c3.905-3.905 3.905-10.237 0-14.142-3.906-3.905-10.236-3.905-14.143 0l-13.551 13.551C312.897 220.67 309 208.635 309 196c0-12.637 3.898-24.673 11.097-34.761l13.552 13.552c3.905 3.905 10.235 3.906 14.143 0 3.905-3.905 3.905-10.237 0-14.142l-13.552-13.552C344.329 139.897 356.364 136 369 136s24.671 3.897 34.76 11.098l-13.552 13.552c-3.905 3.905-3.905 10.237 0 14.142 3.906 3.905 10.236 3.905 14.143 0l13.551-13.551C425.103 171.329 429 183.364 429 196c0 12.637-3.898 24.673-11.097 34.761zM209.188 245.045C220.077 231.069 226 213.991 226 196c0-17.991-5.923-35.069-16.812-49.046l14.593-14.593c3.905-3.905 3.905-10.237 0-14.143-3.905-3.905-10.237-3.905-14.143 0l-14.593 14.593C181.069 121.923 163.991 116 146 116c-17.99 0-35.066 5.922-49.045 16.812l-14.593-14.593c-3.905-3.905-10.237-3.905-14.143 0-3.905 3.905-3.905 10.237 0 14.143l14.593 14.593C71.923 160.931 66 178.009 66 196c0 17.99 5.922 35.066 16.812 49.045l-14.593 14.593c-3.905 3.906-3.905 10.238 0 14.143 3.905 3.905 10.237 3.905 14.143 0l14.593-14.593C110.931 270.077 128.009 276 146 276c17.99 0 35.066-5.922 49.045-16.812l14.593 14.593c3.905 3.905 10.237 3.905 14.143 0 3.905-3.905 3.905-10.237 0-14.143l-14.593-14.593zm-14.285-14.284l-13.552-13.552c-3.905-3.905-10.237-3.905-14.143 0-3.905 3.905-3.905 10.237 0 14.143l13.552 13.552C170.671 252.103 158.636 256 146 256c-12.637 0-24.673-3.898-34.761-11.097l13.552-13.552c3.905-3.905 3.905-10.237 0-14.143-3.905-3.905-10.237-3.905-14.143 0L97.097 230.76C89.897 220.671 86 208.636 86 196c0-12.637 3.898-24.673 11.097-34.761l13.552 13.552c3.905 3.905 10.237 3.905 14.143 0 3.905-3.905 3.905-10.237 0-14.143l-13.552-13.552C121.329 139.897 133.364 136 146 136s24.671 3.897 34.76 11.097l-13.552 13.552c-3.905 3.905-3.905 10.237 0 14.143 3.905 3.905 10.237 3.905 14.143 0l13.552-13.552C202.103 171.329 206 183.364 206 196c0 12.637-3.898 24.673-11.097 34.761zM419 356c-16.542 0-30 13.458-30 30s13.458 30 30 30 30-13.458 30-30-13.458-30-30-30zm0 40c-5.514 0-10-4.486-10-10s4.486-10 10-10 10 4.486 10 10-4.486 10-10 10zM256 356c-16.542 0-30 13.458-30 30s13.458 30 30 30 30-13.458 30-30-13.458-30-30-30zm0 40c-5.514 0-10-4.486-10-10s4.486-10 10-10 10 4.486 10 10-4.486 10-10 10zM93 356c-16.542 0-30 13.458-30 30s13.458 30 30 30 30-13.458 30-30-13.458-30-30-30zm0 40c-5.514 0-10-4.486-10-10s4.486-10 10-10 10 4.486 10 10-4.486 10-10 10zM196 376h-43c-5.523 0-10 4.477-10 10s4.477 10 10 10h43c5.523 0 10-4.477 10-10s-4.477-10-10-10zM359 376h-43c-5.522 0-10 4.477-10 10s4.478 10 10 10h43c5.522 0 10-4.477 10-10s-4.478-10-10-10z"/></svg>