<svg version="1.0" xmlns="http://www.w3.org/2000/svg" viewBox="0 0 512 512"><path d="M28.7 1.1C18.4 3.5 8.1 12.2 3.3 22.5l-2.8 6v455l2.8 6c3.7 7.9 11.4 15.6 19.1 19.2l6.1 2.8h455l6.5-3.1c8.2-3.9 14.4-10.1 18.4-18.4l3.1-6.5v-455l-3.1-6.5c-4-8.3-10.2-14.5-18.4-18.4L483.5.5 258 .3C129.1.3 30.9.6 28.7 1.1zm457.4 17.4c2.4 1.7 5.7 5 7.4 7.4l3 4.3.3 223.1c.2 174.5 0 224.2-1 227.7-1.5 5.8-8.7 13.1-14.4 14.8-5.5 1.6-444.8 1.8-450.7.1-5.3-1.4-13.2-9.3-14.6-14.4-1.5-5.6-1.5-445.4 0-450.9 1.4-5 8.3-12.3 13.4-14.1 3.4-1.2 36.7-1.4 228.2-1.2l224.1.2 4.3 3z"/><path d="M62.5 62.5C60.1 64.8 60 65.4 60 78c0 9.7-.3 13-1.2 13-.7 0-3.7 1.1-6.6 2.5-7.6 3.5-15.4 11.3-18.8 18.8l-2.9 6.2v49l2.8 6c3.6 7.8 10.7 15 18.2 18.6 3.3 1.6 6.6 2.9 7.3 2.9.9 0 1.2 10.8 1.2 50.5v50.6l2.5 2.4c3.1 3.2 6.9 3.2 10 0l2.5-2.4V75h362v99h-96.3c-93.4 0-96.6.1-104.3 2-30 7.7-52.7 30.4-60.4 60.4-2.8 10.9-2.8 28.3 0 39.2 7.7 30 29.7 52 60.5 60.6 8 2.2 8.4 2.2 104.3 2.6l96.2.3V437H75V320.9l-2.6-2.6c-2.4-2.4-3-2.5-8.6-1.9-12.9 1.3-24.9 10-30.5 22.1l-2.8 6v49l2.9 6.2c3.4 7.5 11.2 15.3 18.8 18.8 2.9 1.4 5.9 2.5 6.6 2.5.9 0 1.2 3.3 1.2 13 0 12.6.1 13.2 2.5 15.5l2.4 2.5h382.2l2.4-2.5 2.5-2.4V64.9l-2.5-2.4-2.4-2.5H64.9l-2.4 2.5zM60 143c0 40.9.4 39.5-7.8 31.2-6.5-6.5-7.2-9.4-7.2-31.2 0-21.8.7-24.7 7.2-31.3 8.2-8.2 7.8-9.6 7.8 31.3zm377 113.5V324h-88.7c-51.2 0-92.8-.5-98.2-1-17.2-1.8-29.5-7.6-41.5-19.5-8.1-8-12.6-15.1-16.4-25.7-3.4-9.6-4.3-27.8-1.7-37.8 6.1-23.8 24.1-42.3 47.8-49.1 5.7-1.6 13.2-1.8 102.5-1.8l96.2-.1v67.5zM60 369c0 40.9.4 39.5-7.8 31.2-6.5-6.5-7.2-9.4-7.2-31.2 0-21.8.7-24.7 7.2-31.3 8.2-8.2 7.8-9.6 7.8 31.3z"/><path d="M319 206.2c-1.9 2-2 3.4-2 19.7.1 18.9.4 20.1 5.4 22.1 1.5.5 9.2 1 17.1 1 7.9 0 15.6-.5 17.1-1 5-2 5.3-3.2 5.4-22.1 0-23.5 1.7-21.9-22.5-21.9-17.7 0-18.5.1-20.5 2.2zm28 20.3v7.5h-15v-15h15v7.5zM379 206.2c-1.9 2-2 3.4-2 19.7.1 18.9.4 20.1 5.4 22.1 1.5.5 9.2 1 17.1 1 7.9 0 15.6-.5 17.1-1 5-2 5.3-3.2 5.4-22.1 0-23.5 1.7-21.9-22.5-21.9-17.7 0-18.5.1-20.5 2.2zm28 20.3v7.5h-15v-15h15v7.5zM244.3 220.4c-6 1.9-10.4 4.9-15.7 10.6-7.4 7.9-9.1 12.5-9.1 25 0 8.7.4 11.3 2.2 15.3 3.1 6.6 11.5 15.2 18.2 18.4 5 2.5 6.7 2.8 16.1 2.8 9.4 0 11.1-.3 16.1-2.8 6.7-3.2 15.1-11.8 18.2-18.4 1.8-4 2.2-6.6 2.2-15.3 0-12.7-1.7-17.1-9.6-25.5-7.6-8-14-10.9-25.3-11.2-5.7-.2-10.7.2-13.3 1.1zm21.5 15.5c8 4.1 12.2 11.1 12.2 20.1 0 13-9 22-22 22s-22-9-22-22c0-9 4.3-16 12.5-20.3 4.3-2.3 14.6-2.2 19.3.2z"/><path d="M250.7 250.8c-2.3 2.5-2.2 8.5.1 10.5 2.5 2.3 8.5 2.2 10.5-.1 2.3-2.5 2.2-8.5-.1-10.5-2.5-2.3-8.5-2.2-10.5.1zM319 266.2c-1.9 2-2 3.4-2 19.7.1 18.9.4 20.1 5.4 22.1 1.5.5 9.2 1 17.1 1 7.9 0 15.6-.5 17.1-1 5-2 5.3-3.2 5.4-22.1 0-23.5 1.7-21.9-22.5-21.9-17.7 0-18.5.1-20.5 2.2zm28 20.3v7.5h-15v-15h15v7.5zM379 266.2c-1.9 2-2 3.4-2 19.7.1 18.9.4 20.1 5.4 22.1 1.5.5 9.2 1 17.1 1 7.9 0 15.6-.5 17.1-1 5-2 5.3-3.2 5.4-22.1 0-23.5 1.7-21.9-22.5-21.9-17.7 0-18.5.1-20.5 2.2zm28 20.3v7.5h-15v-15h15v7.5z"/></svg>
