<svg version="1.0" xmlns="http://www.w3.org/2000/svg" viewBox="0 0 512 512"><path d="M128 9c-19.4 23.6-31.1 47.5-37.7 77.4l-2.7 12.1-.3 151.8c-.3 143.3-.5 151.8-2.1 151.1-7-3.1-16.4-5.6-23-6-34.5-2.6-64.3 27.4-61.9 62 2 29.1 25.2 52.3 54.3 54.3 28.5 2 55-18.1 60.9-46.2 1.2-5.6 1.5-16.7 1.5-55.1v-48.1l18.3-9.6 18.2-9.6.5 61.2c.5 47 .9 62.1 1.9 65.2 7.9 24 28.6 40.5 52.7 42.2 40.5 2.9 72.1-37.7 59.3-76.1-8.5-25.4-33.1-42.1-59.1-40.2-6.5.4-16 2.9-23 6-1.6.7-1.8-8-2.1-150.6-.4-163.7 0-152.7-5.7-174.8-5.7-22.5-17.7-45.8-32.9-64.4-3.1-3.7-6.5-7.9-7.6-9.3l-2-2.4L128 9zM70.2 427.8c10.2 4.5 16.2 14.1 16.2 25.7 0 29.5-38.6 39.2-52.9 13.3-2.6-4.6-3-6.3-3-13.3 0-7.1.3-8.6 3.1-13.5 3.8-6.6 8.5-10.6 15.6-13.2 6.4-2.3 14.5-1.9 21 1zm154.1.1c10.2 4.9 16.1 14.4 16.1 25.6 0 8.6-2.5 14.7-8.4 20.4-13.5 13.1-35.3 9.6-44.5-7.1-2.6-4.6-3-6.3-3-13.3 0-7.1.3-8.6 3.1-13.5 3.8-6.6 8.5-10.6 15.6-13.2 6.6-2.3 14.9-1.9 21.1 1.1zM358.9 2.3c-12.1 4.1-20.4 11.9-25.1 23.4l-2.3 5.8-.3 240.2L331 512h60V270h121v-30H391v-30h121v-30H391v-30h121v-30H391V90h121V60H391V30h121V0h-73.2l-73.3.1-6.6 2.2z"/></svg>
