<svg version="1.0" xmlns="http://www.w3.org/2000/svg" viewBox="0 0 512 512"><path d="M24.5 27.1c-7.6 2.4-14.3 7.3-18.4 13.5-6.5 9.9-6.2.2-5.9 161.5l.3 146.4 2.6 5.6c3.6 7.6 8.6 12.9 16.1 17l6.3 3.4 78.8.3 78.7.2-.2 20.2-.3 20.1-60.9 21.3c-33.4 11.6-61.9 21.8-63.3 22.5-6.6 3.6-9.3 13.8-5.1 19.8 1.2 1.9 3.4 4.3 4.8 5.3 5.9 4.4 3.8 4.9 96-27.1 93.4-32.5 95-32.9 109.3-31.1 9.2 1.1 6.9.4 101.7 33.4 84.7 29.6 83.1 29.1 89 24.8 1.4-1 3.6-3.4 4.8-5.3 4.6-6.6 1.1-17.4-6.7-20.6-2.8-1.2-81.8-28.9-116.1-40.7l-6.5-2.3-.3-20.1-.2-20.2 78.7-.2 78.8-.3 5.8-2.9c7-3.6 13-9.9 16.5-17.4l2.7-5.7v-297l-2.7-5.8c-3.6-7.5-11.2-14.9-18.5-17.9l-5.8-2.3-227-.2c-222.7-.2-227.1-.2-233 1.8zm455.7 29.6c1.7 1.5 1.8 7.3 1.8 143.4 0 127.5-.2 141.9-1.6 143.3-1.4 1.4-23.1 1.6-224.4 1.6s-223-.2-224.4-1.6C30.2 342 30 327.7 30 200.3c0-130.4.1-141.8 1.7-143.5 1.5-1.7 9.8-1.8 224.1-1.8 205.7 0 222.7.1 224.4 1.7zM299 389.9v14.9l-6.7-2.5c-24.9-9-48.5-9-72.6.1l-6.7 2.5V375h86v14.9z"/><path d="M99.4 82c-2.4 1.2-11.7 9.7-22.6 20.8-19.9 20.1-21.8 22.9-20.4 30.6.9 4.8 6.2 10.2 10.9 11.1 8.5 1.6 9.6.9 31.4-20.8 14-13.8 20.6-21.2 21.4-23.5 2.4-7.3-.9-15.5-7.5-18.6-4.5-2.1-8.2-2-13.2.4zM165.9 94.9c-6 3.9-95.5 93.9-96.8 97.4-2.6 6.9-.2 15.2 5.4 18.7 3.9 2.4 11.3 2.7 15.3.6 3.3-1.8 96.5-95.2 98.1-98.3.6-1.2 1.1-4.3 1.1-6.9 0-12.1-12.5-18.4-23.1-11.5z"/></svg>
