<svg version="1.0" xmlns="http://www.w3.org/2000/svg" viewBox="0 0 512 512"><path d="M162.5 1.4c-6.9 1.8-9.7 3-15.9 7-18.3 11.7-27.3 34.3-22 55 3.7 14.2 14 27 26.5 32.9 4.5 2.1 7.1 3.9 7.4 5.2.3 1.1 6.3 40 13.5 86.4 14.1 91.5 13.8 90 20.9 94.8 1.8 1.3 5 2.7 7 3.3 2.3.6 31.5 1 78.7 1h75.1l23.3 74.7c12.8 41.2 24 76.1 24.8 77.7 1.9 3.8 5.9 7.5 10.1 9.3 7.2 3.1 11 2.1 41.6-10.1 15.8-6.3 29.9-12.6 31.2-13.8 7.1-6.6 8.4-18.5 2.9-26.8-3.1-4.8-10.9-9-16.6-9-2 0-11 3-20.8 6.9-11.4 4.6-17.5 6.5-17.8 5.8-.2-.7-10.5-33.5-22.8-72.9-16.3-52.5-23-72.7-24.9-75.2-1.5-1.9-4.6-4.3-7-5.5-4.3-2.1-5.1-2.1-79.8-2.1h-75.5l-2.8-18.3c-1.5-10-3-19.2-3.3-20.4l-.5-2.2 43.4-.3 43.5-.3 4.8-3c13.2-8.2 12.6-27.8-1-35.3-2.6-1.5-8.8-1.8-50-2.2l-46.9-.5-5.3-34c-4.3-28.1-5-34.1-3.9-34.7 8.7-4.9 17.5-15.7 21.7-26.7 2.7-6.9 3.6-19.6 1.9-27.4-2.8-13.5-13-27.3-25.5-34.2-10.6-6-24.7-7.9-36-5.1z"/><path d="M111.9 185.3c-1.9.7-7.3 3.8-12 6.9-42.4 27.7-69.8 70.3-77.4 120.6-2 13-2 38 0 50.7 6 37.8 22.5 70.5 49 97 27 26.9 59.9 43.6 98 49.6 12.5 2 42 1.7 54-.5 20.8-3.8 40-10.7 57.5-20.8 15.1-8.7 24-15.6 37-28.7 13.6-13.8 22.7-26.2 31.2-42.9 5.6-11 6.3-12.8 6.2-18-.1-6.6-1.9-10.7-6.8-14.9-7.1-6.3-17.4-7-24.9-1.6-3.3 2.3-5.4 5.2-9.7 13.5-7.4 14.3-13.9 23.7-23.4 33.6-18.6 19.4-42 32.5-68.6 38.3-13.7 3.1-38.9 3.3-51.9.6-27.4-5.9-49.3-17.3-67.9-35.4-26.9-26.4-40.4-58.4-40.3-96.3 0-26.8 7.3-50.4 22.9-74 7.3-11.2 24.1-27.8 35.7-35.4 12.3-8 15.3-11 17.1-17.3 1.8-6.4 1.2-10.7-2.7-16.7-4.6-7.4-15.2-11.2-23-8.3z"/></svg>
